<svg xmlns="http://www.w3.org/2000/svg" viewBox="0 0 53.24 53.12"><defs><style>.cls-1,.cls-2{fill-rule:evenodd;}.cls-1{opacity:0.7;isolation:isolate;}</style></defs><g id="Layer_2" data-name="Layer 2"><g id="Layer_1-2" data-name="Layer 1"><path class="cls-1" d="M34.48,35.26l-5.31-1.77,3.6-1.2a5.13,5.13,0,0,1,4.92,1l.63.53a3.19,3.19,0,0,1-3.84,1.48"/><path class="cls-2" d="M32.26,30.77l-13.5,4.48A3.21,3.21,0,0,1,15,30.55l8.88-14.77a3.23,3.23,0,0,1,5.53,0l8,13.29.89,1.48A3.08,3.08,0,0,1,38.73,32a6.72,6.72,0,0,0-6.47-1.25"/><path class="cls-2" d="M26.62,53.12A26.56,26.56,0,1,1,53.24,26.56,26.59,26.59,0,0,1,26.62,53.12Zm0-4A22.58,22.58,0,1,0,4,26.56,22.6,22.6,0,0,0,26.62,49.13Z"/></g></g></svg>