<?xml version="1.0" encoding="UTF-8"?> <svg xmlns="http://www.w3.org/2000/svg" xmlns:xlink="http://www.w3.org/1999/xlink" width="49.222" height="49.222" viewBox="0 0 49.222 49.222"><defs><clipPath id="clip-path"><rect id="Rectangle_3717" data-name="Rectangle 3717" width="49.222" height="49.222" fill="#5bd0ff"></rect></clipPath><clipPath id="clip-path-2"><rect id="Rectangle_3707" data-name="Rectangle 3707" width="11.181" height="11.765" fill="#5bd0ff"></rect></clipPath><clipPath id="clip-path-3"><rect id="Rectangle_3708" data-name="Rectangle 3708" width="12.255" height="12.087" fill="#5bd0ff"></rect></clipPath><clipPath id="clip-path-4"><rect id="Rectangle_3709" data-name="Rectangle 3709" width="8.78" height="11.124" fill="#5bd0ff"></rect></clipPath><clipPath id="clip-path-5"><rect id="Rectangle_3710" data-name="Rectangle 3710" width="11.418" height="11.926" fill="#5bd0ff"></rect></clipPath><clipPath id="clip-path-6"><rect id="Rectangle_3711" data-name="Rectangle 3711" width="12.214" height="11.965" fill="#5bd0ff"></rect></clipPath><clipPath id="clip-path-7"><rect id="Rectangle_3712" data-name="Rectangle 3712" width="9.716" height="9.572" fill="#5bd0ff"></rect></clipPath><clipPath id="clip-path-8"><rect id="Rectangle_3713" data-name="Rectangle 3713" width="10.838" height="9.929" fill="#5bd0ff"></rect></clipPath><clipPath id="clip-path-11"><rect id="Rectangle_3716" data-name="Rectangle 3716" width="12.214" height="11.966" fill="#5bd0ff"></rect></clipPath></defs><g id="Group_7287" data-name="Group 7287" clip-path="url(#clip-path)"><g id="Group_7259" data-name="Group 7259" transform="translate(0.5 27.91)" opacity="0.7"><g id="Group_7258" data-name="Group 7258"><g id="Group_7257" data-name="Group 7257" clip-path="url(#clip-path-2)"><path id="Path_3596" data-name="Path 3596" d="M8.575,27.91.5,29.571a24.488,24.488,0,0,0,4.655,10.1l6.526-5.053A16.261,16.261,0,0,1,8.575,27.91" transform="translate(-0.5 -27.91)" fill="#5bd0ff"></path></g></g></g><g id="Group_7262" data-name="Group 7262" transform="translate(5.156 34.622)" opacity="0.6"><g id="Group_7261" data-name="Group 7261"><g id="Group_7260" data-name="Group 7260" clip-path="url(#clip-path-3)"><path id="Path_3597" data-name="Path 3597" d="M11.681,34.622,5.155,39.675a24.719,24.719,0,0,0,8.618,7.034l3.637-7.416a16.42,16.42,0,0,1-5.729-4.671" transform="translate(-5.156 -34.622)" fill="#5bd0ff"></path></g></g></g><g id="Group_7265" data-name="Group 7265" transform="translate(0 18.448)" opacity="0.8"><g id="Group_7264" data-name="Group 7264"><g id="Group_7263" data-name="Group 7263" clip-path="url(#clip-path-4)"><path id="Path_3598" data-name="Path 3598" d="M8.243,24.611a16.351,16.351,0,0,1,.537-4.094l-8-2.069A24.805,24.805,0,0,0,.5,29.571L8.576,27.91a16.45,16.45,0,0,1-.333-3.3" transform="translate(0 -18.448)" fill="#5bd0ff"></path></g></g></g><g id="Group_7268" data-name="Group 7268" transform="translate(37.026 28.705)" opacity="0.2"><g id="Group_7267" data-name="Group 7267"><g id="Group_7266" data-name="Group 7266" clip-path="url(#clip-path-5)"><path id="Path_3599" data-name="Path 3599" d="M40.442,28.7a16.319,16.319,0,0,1-3.417,6.556l6.261,5.37a24.528,24.528,0,0,0,5.157-9.857Z" transform="translate(-37.026 -28.705)" fill="#5bd0ff"></path></g></g></g><g id="Group_7271" data-name="Group 7271" transform="translate(31.072 35.261)" opacity="0.3"><g id="Group_7270" data-name="Group 7270"><g id="Group_7269" data-name="Group 7269" clip-path="url(#clip-path-6)"><path id="Path_3600" data-name="Path 3600" d="M31.072,39.65l3.255,7.577a24.692,24.692,0,0,0,8.959-6.6l-6.261-5.371a16.4,16.4,0,0,1-5.953,4.389" transform="translate(-31.072 -35.261)" fill="#5bd0ff"></path></g></g></g><g id="Group_7274" data-name="Group 7274" transform="translate(24.611 39.65)" opacity="0.4"><g id="Group_7273" data-name="Group 7273"><g id="Group_7272" data-name="Group 7272" clip-path="url(#clip-path-7)"><path id="Path_3601" data-name="Path 3601" d="M24.611,40.979v8.243a24.534,24.534,0,0,0,9.716-2l-3.255-7.577a16.306,16.306,0,0,1-6.461,1.33" transform="translate(-24.611 -39.65)" fill="#5bd0ff"></path></g></g></g><g id="Group_7277" data-name="Group 7277" transform="translate(13.773 39.293)" opacity="0.5"><g id="Group_7276" data-name="Group 7276"><g id="Group_7275" data-name="Group 7275" clip-path="url(#clip-path-8)"><path id="Path_3602" data-name="Path 3602" d="M17.41,39.293l-3.637,7.416a24.508,24.508,0,0,0,10.838,2.513V40.979a16.272,16.272,0,0,1-7.2-1.686" transform="translate(-13.773 -39.293)" fill="#5bd0ff"></path></g></g></g><path id="Path_3603" data-name="Path 3603" d="M40.647,21.312l8.075-1.661a24.488,24.488,0,0,0-4.655-10.1L37.541,14.6a16.261,16.261,0,0,1,3.106,6.712" transform="translate(0 0)" fill="#5bd0ff"></path><g id="Group_7280" data-name="Group 7280" transform="translate(40.442 19.65)" opacity="0"><g id="Group_7279" data-name="Group 7279"><g id="Group_7278" data-name="Group 7278" clip-path="url(#clip-path-4)"><path id="Path_3604" data-name="Path 3604" d="M40.979,24.611a16.357,16.357,0,0,1-.537,4.094l8,2.069a24.805,24.805,0,0,0,.279-11.123l-8.076,1.661a16.451,16.451,0,0,1,.333,3.3" transform="translate(-40.442 -19.651)" fill="#5bd0ff"></path></g></g></g><g id="Group_7283" data-name="Group 7283" transform="translate(0.778 8.591)" opacity="0.9"><g id="Group_7282" data-name="Group 7282"><g id="Group_7281" data-name="Group 7281" clip-path="url(#clip-path-5)"><path id="Path_3605" data-name="Path 3605" d="M12.2,13.961l-6.26-5.37A24.533,24.533,0,0,0,.779,18.447l8,2.069A16.309,16.309,0,0,1,12.2,13.961" transform="translate(-0.778 -8.591)" fill="#5bd0ff"></path></g></g></g><path id="Path_3606" data-name="Path 3606" d="M37.541,14.6l6.526-5.053a24.719,24.719,0,0,0-8.618-7.034L31.812,9.929A16.42,16.42,0,0,1,37.541,14.6" transform="translate(0 0)" fill="#5bd0ff"></path><path id="Path_3607" data-name="Path 3607" d="M31.812,9.929l3.637-7.416A24.505,24.505,0,0,0,24.611,0V8.243a16.272,16.272,0,0,1,7.2,1.686" transform="translate(0 0)" fill="#5bd0ff"></path><g id="Group_7286" data-name="Group 7286" transform="translate(5.936 1.996)" opacity="0.95"><g id="Group_7285" data-name="Group 7285"><g id="Group_7284" data-name="Group 7284" clip-path="url(#clip-path-11)"><path id="Path_3608" data-name="Path 3608" d="M18.15,9.572,14.9,2a24.715,24.715,0,0,0-8.959,6.6L12.2,13.961A16.422,16.422,0,0,1,18.15,9.572" transform="translate(-5.936 -1.996)" fill="#5bd0ff"></path></g></g></g><path id="Path_3609" data-name="Path 3609" d="M24.611,8.243V0A24.516,24.516,0,0,0,14.9,2L18.15,9.573a16.306,16.306,0,0,1,6.461-1.33" transform="translate(0 0)" fill="#5bd0ff"></path></g></svg> 