<svg id="f77bef23-d7a9-4174-831c-0febecc9fb8e" data-name="Layer 1" xmlns="http://www.w3.org/2000/svg" viewBox="0 0 184.54 179.38"><path d="M126,110.18c.7.8-.06-.07,0,0Z" style="fill:#fff"/><path d="M158.58,148.16l0-.14c-.91-1.78-4.73-6-10.06-11.84-12.11-13.3-32.35-35.59-32.35-46.08a2,2,0,0,0,0-.29c0-.08,0-.13,0-.3,0-10.4,20.24-32.69,32.35-46,5.33-5.85,9.15-10,10.06-11.83l0-.12a4.15,4.15,0,0,0,.2-.77,5.56,5.56,0,0,0-5.45-6.43,7.29,7.29,0,0,0-4.56,1.73l-.8.49c-3,2.2-7.39,6-12.52,10.3C122,48.41,101.59,65.8,92.05,66.11c-9.62-.31-30-17.7-43.49-29.23C43.44,32.53,39,28.78,36,26.56c-.24-.17-.49-.33-.73-.47a7.3,7.3,0,0,0-4.54-1.73,5.45,5.45,0,0,0-4.13,1.86,5.62,5.62,0,0,0-1.35,4.57,4.35,4.35,0,0,0,.22.76l0,.13c.9,1.79,4.74,6,10,11.83,12.08,13.33,32.35,35.6,32.35,46v.69c0,10.39-20.27,32.68-32.35,46-5.3,5.85-9.14,10.06-10,11.84l0,.14a3.81,3.81,0,0,0-.22.75,5.63,5.63,0,0,0,1.35,4.57,5.45,5.45,0,0,0,4.13,1.86,7.35,7.35,0,0,0,4.54-1.72l.78-.51c3-2.16,7.42-5.93,12.54-10.3C62,131.3,82.43,113.89,92,113.59c9.6.3,30,17.71,43.46,29.22,5.13,4.37,9.53,8.14,12.57,10.34.24.15.53.32.75.47a7.33,7.33,0,0,0,4.56,1.72,5.44,5.44,0,0,0,4.11-1.85,5.5,5.5,0,0,0,1.34-4.59A3.35,3.35,0,0,0,158.58,148.16Z" style="fill:#133b62"/><path d="M117.57,7.59a4.78,4.78,0,0,0-4.1-1.22C108.44,8.25,99.72,21.9,92,22,84.29,21.9,75.56,8.25,70.54,6.37a4.73,4.73,0,0,0-4.08,1.22A4.59,4.59,0,0,0,66.39,14c3.12,4,6.4,8,9.64,12s6.33,8.11,9.67,12A8.64,8.64,0,0,0,92,40.89h0A8.57,8.57,0,0,0,98.31,38c3.33-3.86,6.57-7.92,9.68-12s6.52-7.93,9.65-12A4.59,4.59,0,0,0,117.57,7.59Z" style="fill:#61a60e"/><path d="M6.67,65a4.32,4.32,0,0,0-1.23,4c1.89,4.88,15.91,13.4,16,20.89-.13,7.5-14.15,16-16,20.89a4.32,4.32,0,0,0,1.23,4,4.86,4.86,0,0,0,6.59.09c4.18-3,8.24-6.24,12.29-9.4,4.15-3,8.34-6.15,12.31-9.42a8.25,8.25,0,0,0,3-6.12h0a8.28,8.28,0,0,0-3-6.12c-4-3.26-8.16-6.4-12.31-9.42S17.44,68,13.26,64.91A4.86,4.86,0,0,0,6.67,65Z" style="fill:#61a60e"/><path d="M66.46,173.25a4.73,4.73,0,0,0,4.08,1.22c5-1.86,13.75-15.53,21.48-15.64,7.7.11,16.42,13.78,21.45,15.64a4.78,4.78,0,0,0,4.1-1.22,4.57,4.57,0,0,0,.07-6.4c-3.13-4.07-6.42-8-9.65-12s-6.35-8.11-9.68-12A8.63,8.63,0,0,0,92,140h0a8.69,8.69,0,0,0-6.29,2.92c-3.34,3.88-6.55,8-9.67,12s-6.52,7.91-9.64,12A4.57,4.57,0,0,0,66.46,173.25Z" style="fill:#61a60e"/><path d="M176.9,114.7a4.45,4.45,0,0,0,1.22-4c-1.9-4.89-15.92-13.39-16.05-20.89.13-7.49,14.15-16,16.05-20.89a4.45,4.45,0,0,0-1.22-4,4.89,4.89,0,0,0-6.6-.09C166.12,68,162,71.16,158,74.3s-8.33,6.16-12.3,9.42a8.18,8.18,0,0,0-3,6.12h0a8.23,8.23,0,0,0,3,6.14c4,3.25,8.14,6.39,12.3,9.4s8.14,6.36,12.32,9.4A4.88,4.88,0,0,0,176.9,114.7Z" style="fill:#61a60e"/></svg>