<!-- Generator: Adobe Illustrator 25.2.1, SVG Export Plug-In  -->
<svg version="1.1" xmlns="http://www.w3.org/2000/svg" xmlns:xlink="http://www.w3.org/1999/xlink" x="0px" y="0px" width="52.5px"
	 height="80.5px" viewBox="0 0 52.5 80.5" style="overflow:visible;enable-background:new 0 0 52.5 80.5;" xml:space="preserve">
<style type="text/css">
	.st0{fill:#FFFFFF;}
	.st1{fill:#004865;}
</style>
<defs>
</defs>
<g>
	<path class="st0" d="M13.7,40.5c1.1-0.1,2.4-0.3,3.7-0.4l2.4-0.2l-1.9,1.5C12.2,45.9,7.8,52,5.3,58.8c1,2.8,2.4,5.4,4,7.9
		c0.8,1.3,1.8,2.6,2.9,3.8l0.1,0.1c0.2,0.2,0.4,0.5,0.6,0.7l0.2,0.2c0.2,0.2,0.3,0.4,0.5,0.5c0.4,0.4,0.8,0.8,1.2,1.2
		c0.3,0.3,0.7,0.7,1,1l0.1,0.1c0.4,0.4,0.8,0.7,1.3,1.1c0.5-6.4,1.9-12.6,4.3-18.6l1-2.6l0.4,2.7c0.2,1.1,0.5,2.2,0.9,3.3l8-21.3
		l0.6,0.1c1.2,0.2,2.4,0.3,3.5,0.3c0,0,0,0,0,0c6.9,0,10.4-4.3,11.9-7l0-0.1l0.1-0.2c-1.2-0.1-2.5-0.1-3.7-0.1
		C27.9,32.2,17.8,37.7,13.7,40.5z"/>
	<path class="st0" d="M30.1,27.6c0,0-1.8-1.7-3.8-2.5c-0.6-0.3-1.1-0.5-1.6-0.5c-0.3,0-0.5,0-0.8,0c-2.6,0.3-4.2,5.5-4.2,5.5
		C24.3,27.4,30.1,27.6,30.1,27.6z"/>
	<path class="st1" d="M45.2,26.6c-3.3,0-6.4-1.2-8.8-3.4c-0.6-0.6-1.2-1.2-1.7-1.9c-0.2-0.3-0.4-0.5-0.5-0.8
		c-0.1-0.2-0.3-0.4-0.4-0.6l0-0.1c-0.1-0.2-0.3-0.3-0.4-0.5l-0.1-0.1c-0.1-0.2-0.3-0.3-0.4-0.5l-0.1-0.1c-0.2-0.2-0.3-0.3-0.5-0.5
		l-0.1-0.1c-0.2-0.2-0.3-0.3-0.5-0.4l0,0l0,0c-0.2-0.2-0.4-0.3-0.5-0.5c-1.5-1.2-3-2-4.8-2.7l0.8-9l0.3-3.5l-3.1,1.7
		c-2.5,1.4-4.7,3.3-6.3,5.6l-0.7-6.7L17,0l-2,0.9c-6.6,3.2-11.2,9.6-11.5,17c-0.1,1.8,0.1,3.6,0.5,5.3c0.1,0.6,0.3,1.2,0.5,1.7
		C1.5,31,0,37.4,0,44.2C0,53,2.6,61.4,7.5,68.7c2.6,3.7,5.8,6.8,8.3,8.9c0.7,0.6,1.3,1.1,1.9,1.5c0.7,0.6,1.3,1,1.7,1.3
		c0-0.8,0-1.6,0-2.4c0-0.3,0-0.6,0-0.9l0-0.4c0.3-4.8,1.1-9.6,2.5-14.2c0.1,0.2,0.2,0.3,0.3,0.5l1.8,3.3l9.2-24.6
		c0.9,0.1,1.7,0.2,2.5,0.2c1.6,0,3-0.2,4.3-0.5c1.5-0.4,2.9-1,4.3-1.8c0.7-0.4,1.3-0.9,1.9-1.4l0,0c1.3-1,2.3-2.1,3.1-3.3
		c0.1-0.1,0.1-0.2,0.2-0.3c0,0,0,0,0,0c0.9-1.3,1.6-2.7,2-4.3c1-3,1.1-5.5,1.1-5.5l-3,1.1C48.1,26.3,46.7,26.6,45.2,26.6z
		 M23.8,24.6c0.3,0,0.5,0,0.8,0c0.5,0,1.1,0.2,1.6,0.5c2,0.9,3.8,2.5,3.8,2.5s-5.8-0.3-10.4,2.5C19.7,30.1,21.2,24.9,23.8,24.6z
		 M47.6,32.4L47.6,32.4c-1.5,2.7-5,7-11.9,7c0,0,0,0,0,0c-1.1,0-2.3-0.1-3.5-0.3L31.6,39l-8,21.3c-0.5-1.1-0.8-2.2-0.9-3.3l-0.4-2.7
		l-1,2.6c-2.3,6-3.8,12.2-4.3,18.6c-0.4-0.3-0.8-0.7-1.3-1.1l-0.1-0.1c-0.3-0.3-0.7-0.6-1-1c-0.4-0.4-0.8-0.8-1.2-1.2
		c-0.2-0.2-0.3-0.4-0.5-0.5l-0.2-0.2c-0.2-0.2-0.4-0.5-0.6-0.7l-0.1-0.1c-1.1-1.3-2-2.6-2.9-3.8c-1.6-2.5-3-5.1-4-7.9
		c2.6-6.8,6.9-12.8,12.6-17.4l1.9-1.5l-2.4,0.2c-1.2,0.1-2.5,0.3-3.7,0.4c4.1-2.8,14.2-8.3,30.3-8.3c1.2,0,2.5,0,3.7,0.1L47.6,32.4z
		"/>
</g>
</svg>
