<svg width="92" height="92" viewBox="0 0 92 92" fill="none" xmlns="http://www.w3.org/2000/svg">
<path fill-rule="evenodd" clip-rule="evenodd" d="M76.6627 53.2611L84.1105 45.7731L63.1427 24.6874C61.0145 35.969 66.3586 47.6335 76.6627 53.2611ZM24.0632 30.1282L46.3107 7.76065L59.0524 20.574C52.193 31.709 38.0303 36.3497 25.705 30.9183C25.1451 30.6716 24.5977 30.4079 24.0632 30.1282ZM36.2028 73.342L8.64522 45.6294L20.4627 33.7481C21.6287 34.0812 22.7862 34.4979 23.9278 35.001C37.443 40.9567 43.6308 56.7679 37.7488 70.3161C37.2912 71.3702 36.774 72.3796 36.2028 73.342ZM72.972 56.9718L46.445 83.6418L40.1701 77.3316C40.5375 75.5725 41.0879 73.8251 41.8308 72.1138C47.1428 59.8785 60.4821 53.6729 72.972 56.9718Z" fill="#E71353"/>
</svg>
