<?xml version="1.0" encoding="UTF-8"?> <svg xmlns="http://www.w3.org/2000/svg" width="51" height="51" viewBox="0 0 51 51" fill="none"><path d="M11.3316 44.5468L14.4422 19.5576C14.4781 19.4064 14.5569 19.2697 14.6716 19.1545C14.7863 19.0393 14.9224 18.9817 15.073 18.9817H19.3448C19.6888 18.9817 19.868 19.1761 19.868 19.5648L16.872 43.3373C16.8362 43.6469 16.8147 44.0501 16.8147 44.554C16.8147 47.0666 17.9113 48.3265 20.1045 48.3265C21.3373 48.3265 22.3694 47.8514 23.1937 46.901C24.0179 45.9507 24.534 44.6476 24.7275 42.9846L28.9563 8.81609H24.5626C24.1684 8.81609 23.9606 8.35533 24.2114 8.05295L30.7123 0.702338C29.1785 0.392762 27.5873 0.234375 25.9531 0.234375C12.1487 0.234375 0.953125 11.4727 0.953125 25.346C0.953125 33.6901 5.00272 41.0767 11.2384 45.6412C11.2599 45.3316 11.2886 44.9788 11.3316 44.5468Z" fill="#F05023"></path><path d="M35.4209 2.09863L39.1121 8.10295C39.2985 8.41253 39.0763 8.8085 38.7179 8.8085H34.3386L29.1924 50.234C41.463 48.6357 50.9527 38.103 50.9527 25.3456C50.9527 14.8416 44.5307 5.84953 35.4209 2.09863Z" fill="#F05023"></path></svg> 