<svg width="32" height="32" viewBox="0 0 32 32" fill="none" xmlns="http://www.w3.org/2000/svg">
<path d="M16.1211 0.25L29.7422 8.11416V23.8425L16.1211 31.7066L2.5 23.8425V8.11416L16.1211 0.25Z" fill="#003858"/>
<path fill-rule="evenodd" clip-rule="evenodd" d="M29.7422 8.11416L16.1211 0.25L2.5 8.11416V23.8425L2.50173 23.8435V17.2091L16.1229 9.34497L29.7422 17.2081V8.11416Z" fill="#1973C2"/>
<path fill-rule="evenodd" clip-rule="evenodd" d="M16.0823 31.7043L2.50391 23.8648V14.7698L16.0823 22.6093V31.7043Z" fill="#003858"/>
<path d="M4.56641 15.9784L8.98869 18.5233L16.1228 14.3513L23.2151 18.5233L27.6374 15.9784L16.1228 9.34497L4.56641 15.9784Z" fill="#FBF9ED"/>
<path d="M12.9062 13.3502H19.2476V20.7763L16.0769 22.6119L12.9062 20.7763V13.3502Z" fill="#FBF9ED"/>
</svg>
