<svg xmlns="http://www.w3.org/2000/svg" width="261" height="261" fill="none"><g filter="url(#a)"><rect width="260.73" height="260.73" fill="url(#b)" rx="56.68"/><rect width="260.73" height="260.73" fill="url(#c)" fill-opacity=".2" rx="56.68" style="mix-blend-mode:soft-light"/></g><g filter="url(#d)"><g filter="url(#e)"><path fill="#fff" d="M204 122.318v5.665a73.33 73.33 0 0 1-5.658 28.24 73.617 73.617 0 0 1-16.109 23.922 74.03 74.03 0 0 1-24.097 15.945 74.307 74.307 0 0 1-28.399 5.53c-38.423-.134-69.731-29.781-73.374-67.109a2.818 2.818 0 0 1 1.175-2.527 2.85 2.85 0 0 1 2.781-.305 25.695 25.695 0 0 0 16.183 1.203 25.585 25.585 0 0 0 13.652-8.73 25.541 25.541 0 0 0 8.38 6.757 25.66 25.66 0 0 0 21.066.905 25.557 25.557 0 0 0 8.934-6.012 28.666 28.666 0 0 0 9.158 9.205 33.983 33.983 0 0 0-9.857 11.925 33.805 33.805 0 0 0-3.527 15.037 5.666 5.666 0 0 0 1.832 4.183 5.69 5.69 0 0 0 2.012 1.195 5.73 5.73 0 0 0 2.325.287 5.849 5.849 0 0 0 3.743-1.922 5.788 5.788 0 0 0 1.472-3.927 22.605 22.605 0 0 1 6.734-15.902 22.828 22.828 0 0 1 16.036-6.572 5.711 5.711 0 0 0 4.164-1.789 5.657 5.657 0 0 0 1.528-4.25 5.783 5.783 0 0 0-1.892-3.791 5.837 5.837 0 0 0-3.978-1.498h-5.515a17.12 17.12 0 0 1-12.075-4.978 16.948 16.948 0 0 1-5.002-12.016V99.66h45.539c6.039 0 11.83 2.388 16.1 6.637A22.601 22.601 0 0 1 204 122.318zm-133.25 0c7.713-.283 13.712-6.818 13.712-14.501V91.532c0-7.71-5.999-14.246-13.712-14.53a14.293 14.293 0 0 0-5.605.927 14.241 14.241 0 0 0-4.795 3.034 14.16 14.16 0 0 0-3.22 4.66 14.101 14.101 0 0 0-1.13 5.54v16.994a14.097 14.097 0 0 0 1.13 5.541 14.16 14.16 0 0 0 3.22 4.66 14.275 14.275 0 0 0 10.4 3.96zm39.846 0c7.713-.276 13.712-6.811 13.712-14.494V74.546c0-7.683-5.999-14.218-13.712-14.494a14.293 14.293 0 0 0-5.595.922 14.238 14.238 0 0 0-4.789 3.024 14.154 14.154 0 0 0-3.223 4.644 14.1 14.1 0 0 0-1.143 5.529v33.986a14.097 14.097 0 0 0 1.13 5.541 14.16 14.16 0 0 0 3.22 4.66 14.273 14.273 0 0 0 10.4 3.96zm53.558-48.147a14.096 14.096 0 0 0-1.131-5.542 14.15 14.15 0 0 0-3.219-4.66 14.241 14.241 0 0 0-4.795-3.034 14.291 14.291 0 0 0-5.605-.926c-7.713.284-13.712 6.819-13.712 14.501v13.822h25.616c.755 0 1.478-.299 2.012-.83a2.825 2.825 0 0 0 .834-2.003V74.171z"/></g></g><defs><filter id="a" width="264.796" height="264.799" x="-2.035" y="-2.035" color-interpolation-filters="sRGB" filterUnits="userSpaceOnUse"><feFlood flood-opacity="0" result="BackgroundImageFix"/><feBlend in="SourceGraphic" in2="BackgroundImageFix" result="shape"/><feColorMatrix in="SourceAlpha" result="hardAlpha" values="0 0 0 0 0 0 0 0 0 0 0 0 0 0 0 0 0 0 127 0"/><feOffset dx="2.035" dy="2.035"/><feGaussianBlur stdDeviation="1.017"/><feComposite in2="hardAlpha" k2="-1" k3="1" operator="arithmetic"/><feColorMatrix values="0 0 0 0 1 0 0 0 0 1 0 0 0 0 1 0 0 0 0.2 0"/><feBlend in2="shape" result="effect1_innerShadow_818_117"/><feColorMatrix in="SourceAlpha" result="hardAlpha" values="0 0 0 0 0 0 0 0 0 0 0 0 0 0 0 0 0 0 127 0"/><feOffset dx="-2.035" dy="-2.035"/><feGaussianBlur stdDeviation="1.017"/><feComposite in2="hardAlpha" k2="-1" k3="1" operator="arithmetic"/><feColorMatrix values="0 0 0 0 0 0 0 0 0 0 0 0 0 0 0 0 0 0 0.05 0"/><feBlend in2="effect1_innerShadow_818_117" result="effect2_innerShadow_818_117"/></filter><filter id="d" width="188" height="181.621" x="36" y="60" color-interpolation-filters="sRGB" filterUnits="userSpaceOnUse"><feFlood flood-opacity="0" result="BackgroundImageFix"/><feColorMatrix in="SourceAlpha" result="hardAlpha" values="0 0 0 0 0 0 0 0 0 0 0 0 0 0 0 0 0 0 127 0"/><feOffset dy="20"/><feGaussianBlur stdDeviation="10"/><feColorMatrix values="0 0 0 0 0.00190973 0 0 0 0 0.0475522 0 0 0 0 0.458333 0 0 0 0.12 0"/><feBlend in2="BackgroundImageFix" result="effect1_dropShadow_818_117"/><feBlend in="SourceGraphic" in2="effect1_dropShadow_818_117" result="shape"/></filter><filter id="e" width="148" height="146.621" x="56" y="55" color-interpolation-filters="sRGB" filterUnits="userSpaceOnUse"><feFlood flood-opacity="0" result="BackgroundImageFix"/><feBlend in="SourceGraphic" in2="BackgroundImageFix" result="shape"/><feColorMatrix in="SourceAlpha" result="hardAlpha" values="0 0 0 0 0 0 0 0 0 0 0 0 0 0 0 0 0 0 127 0"/><feOffset dy="-5"/><feGaussianBlur stdDeviation="3"/><feComposite in2="hardAlpha" k2="-1" k3="1" operator="arithmetic"/><feColorMatrix values="0 0 0 0 0.690196 0 0 0 0 0.776941 0 0 0 0 1 0 0 0 0.8 0"/><feBlend in2="shape" result="effect1_innerShadow_818_117"/><feColorMatrix in="SourceAlpha" result="hardAlpha" values="0 0 0 0 0 0 0 0 0 0 0 0 0 0 0 0 0 0 127 0"/><feOffset dy="-4"/><feGaussianBlur stdDeviation="5"/><feComposite in2="hardAlpha" k2="-1" k3="1" operator="arithmetic"/><feColorMatrix values="0 0 0 0 0.766667 0 0 0 0 0.93 0 0 0 0 1 0 0 0 0.4 0"/><feBlend in2="effect1_innerShadow_818_117" result="effect2_innerShadow_818_117"/></filter><linearGradient id="b" x1="130.365" x2="130.365" y1="0" y2="260.73" gradientUnits="userSpaceOnUse"><stop stop-color="#527AFF"/><stop offset="1" stop-color="#1265FF"/></linearGradient><linearGradient id="c" x1="130.365" x2="130.365" y1="0" y2="260.73" gradientUnits="userSpaceOnUse"><stop offset=".328" stop-color="#fff"/><stop offset="1" stop-opacity=".1"/></linearGradient></defs></svg>