<svg xmlns="http://www.w3.org/2000/svg" viewBox="0 0 150.39 62.28"><defs><style>.cls-1{fill:#232f3f;}</style></defs><g id="Layer_2" data-name="Layer 2"><g id="Layer_1-2" data-name="Layer 1"><path class="cls-1" d="M17.41,21.05a8,8,0,0,1-6.5,2.88C4.16,23.93,0,18.69,0,12.19,0,3.49,6.11,0,11.26,0c5.83,0,9.51,3.17,10.53,8.54H15A3.34,3.34,0,0,0,11.71,5.7C6.88,5.7,7,10.78,7,12.35c0,2.14.86,5.89,5.15,5.89a3.49,3.49,0,0,0,3.65-2.53h-3.1v-4.9h9.34V23.39H17.63Z"/><path class="cls-1" d="M25.88.54H44.79V6.4H32.91V9.25H43.7v5.44H32.91v2.84H45.14v5.86H25.88Z"/><path class="cls-1" d="M48.67.54H62.08c4,0,7.46,2.21,7.46,6.53,0,2.37-1.09,4.87-3.43,5.73,1.92.73,3.11,2.85,3.36,5.69.1,1.12.13,3.84.77,4.9h-7a16.26,16.26,0,0,1-.57-3.52c-.2-2.18-.39-4.45-3.17-4.45H55.71v8h-7Zm7,10h3.68c1.32,0,3.11-.23,3.11-2.27C62.5,6.82,61.7,6,59,6h-3.3Z"/><path class="cls-1" d="M72.9.54H86.3c4,0,7.46,2.21,7.46,6.53,0,2.37-1.09,4.87-3.43,5.73,1.92.73,3.11,2.85,3.36,5.69.1,1.12.13,3.84.77,4.9h-7a16.26,16.26,0,0,1-.57-3.52c-.2-2.18-.39-4.45-3.17-4.45H79.94v8h-7Zm7,10h3.67c1.32,0,3.11-.23,3.11-2.27,0-1.44-.8-2.28-3.49-2.28H79.94Z"/><path class="cls-1" d="M97.16.54h7V23.39h-7Z"/><path class="cls-1" d="M112.78,6.4h-6.4V.54h19.84V6.4h-6.4v17h-7Z"/><path class="cls-1" d="M135.16,15l-8-14.43h7.78L138.72,9l4-8.42h7.71L142.2,15v8.42h-7Z"/><path class="cls-1" d="M65.89,38.81H58.77v6.34H65.4c2.73,0,3.64-1.48,3.64-3.35A2.81,2.81,0,0,0,65.89,38.81Z"/><polygon class="cls-1" points="107.12 47.18 114.17 47.18 110.61 38.97 107.12 47.18"/><path class="cls-1" d="M0,29.12V62.28H150.39V29.12ZM19.6,53.06c3.25,0,5.72-1.56,6.5-5.17h2.76c-.44,4.1-4,7.56-9.28,7.56-4.68,0-9.75-2.57-9.75-9.8,0-5.41,3.38-9.7,9.72-9.7,3.72,0,8.84,1.59,9.31,7.15H26.1c-.41-2.57-2.44-4.76-6.34-4.76-4.39,0-7.18,2.52-7.18,7.6C12.58,49.45,14.48,53.06,19.6,53.06ZM48.39,55,46,49.58h-9.1L34.56,55h-3L40,36.42h3.15L51.54,55Zm17.37-7.43h-7V55H56V36.42h9.57c4.08,0,6.21,1.87,6.21,5.33S69.66,47.55,65.76,47.55ZM79.56,55H76.8V36.42h2.76Zm14.33,0H91.13V38.81h-7V36.42h16.8v2.39h-7Zm23.66,0-2.37-5.4h-9.1L103.72,55h-3l8.4-18.56h3.15L120.69,55Zm21.66,0h-14V36.42h2.76V52.59h11.28Z"/><polygon class="cls-1" points="37.96 47.18 45.01 47.18 41.45 38.97 37.96 47.18"/></g></g></svg>