<svg xmlns="http://www.w3.org/2000/svg" viewBox="0 0 56.917 75.81">
  <defs>
    <style>
      .cls-1 {
        fill: #4cc5db;
      }

      .cls-2 {
        fill: #2e3191;
      }
    </style>
  </defs>
  <g id="IntelAgree_DocIcon" transform="translate(-19.579 -10.095)">
    <g id="Group_1" data-name="Group 1" transform="translate(19.579 10.095)">
      <path id="Path_1" data-name="Path 1" class="cls-1" d="M3.968,0H3.554A3.615,3.615,0,0,0,0,3.613,3.615,3.615,0,0,0,3.613,7.166h.355A3.615,3.615,0,0,0,7.581,3.613,3.627,3.627,0,0,0,3.968,0Z"/>
      <path id="Path_2" data-name="Path 2" class="cls-1" d="M4.009,16.7H3.654A3.577,3.577,0,0,0,.1,20.313a3.615,3.615,0,0,0,3.613,3.554h.355a3.615,3.615,0,0,0,3.613-3.554A3.8,3.8,0,0,0,4.009,16.7Z" transform="translate(-0.041 -6.809)"/>
      <path id="Path_3" data-name="Path 3" class="cls-1" d="M4.009,33.5H3.654A3.577,3.577,0,0,0,.1,37.113a3.615,3.615,0,0,0,3.613,3.554h.355a3.615,3.615,0,0,0,3.613-3.554A3.718,3.718,0,0,0,4.009,33.5Z" transform="translate(-0.041 -13.659)"/>
      <path id="Path_4" data-name="Path 4" class="cls-1" d="M4.009,50.2H3.654A3.577,3.577,0,0,0,.1,53.813a3.615,3.615,0,0,0,3.613,3.554h.355a3.615,3.615,0,0,0,3.613-3.554A3.76,3.76,0,0,0,4.009,50.2Z" transform="translate(-0.041 -20.468)"/>
    </g>
    <g id="Group_2" data-name="Group 2" transform="translate(29.529 10.095)">
      <path id="Path_5" data-name="Path 5" class="cls-1" d="M20.709,0h-.355A3.577,3.577,0,0,0,16.8,3.613a3.615,3.615,0,0,0,3.613,3.554h.355a3.615,3.615,0,0,0,3.613-3.554A3.758,3.758,0,0,0,20.709,0Z" transform="translate(-16.8)"/>
      <path id="Path_6" data-name="Path 6" class="cls-1" d="M20.709,16.7h-.355A3.577,3.577,0,0,0,16.8,20.313a3.615,3.615,0,0,0,3.613,3.554h.355a3.615,3.615,0,0,0,3.613-3.554A3.847,3.847,0,0,0,20.709,16.7Z" transform="translate(-16.8 -6.809)"/>
      <path id="Path_7" data-name="Path 7" class="cls-1" d="M20.709,33.5h-.355A3.577,3.577,0,0,0,16.8,37.113a3.615,3.615,0,0,0,3.613,3.554h.355a3.615,3.615,0,0,0,3.613-3.554A3.758,3.758,0,0,0,20.709,33.5Z" transform="translate(-16.8 -13.659)"/>
      <path id="Path_8" data-name="Path 8" class="cls-1" d="M20.709,50.2h-.355A3.577,3.577,0,0,0,16.8,53.813a3.615,3.615,0,0,0,3.613,3.554h.355a3.615,3.615,0,0,0,3.613-3.554A3.8,3.8,0,0,0,20.709,50.2Z" transform="translate(-16.8 -20.468)"/>
    </g>
    <g id="Group_3" data-name="Group 3" transform="translate(39.361 10.095)">
      <path id="Path_9" data-name="Path 9" class="cls-1" d="M37.309,0h-.355A3.577,3.577,0,0,0,33.4,3.613a3.615,3.615,0,0,0,3.613,3.554h.3a3.615,3.615,0,0,0,3.613-3.554A3.59,3.59,0,0,0,37.309,0Z" transform="translate(-33.4)"/>
      <path id="Path_10" data-name="Path 10" class="cls-1" d="M37.309,16.7h-.355A3.577,3.577,0,0,0,33.4,20.313a3.615,3.615,0,0,0,3.613,3.554h.3a3.615,3.615,0,0,0,3.613-3.554A3.666,3.666,0,0,0,37.309,16.7Z" transform="translate(-33.4 -6.809)"/>
      <path id="Path_11" data-name="Path 11" class="cls-1" d="M37.309,33.5h-.355A3.577,3.577,0,0,0,33.4,37.113a3.615,3.615,0,0,0,3.613,3.554h.3a3.583,3.583,0,1,0,0-7.166Z" transform="translate(-33.4 -13.659)"/>
      <path id="Path_12" data-name="Path 12" class="cls-1" d="M37.309,50.2h-.355A3.577,3.577,0,0,0,33.4,53.813a3.615,3.615,0,0,0,3.613,3.554h.3a3.583,3.583,0,1,0,0-7.166Z" transform="translate(-33.4 -20.468)"/>
    </g>
    <path id="Path_13" data-name="Path 13" class="cls-2" d="M53.968,0h-.415A3.577,3.577,0,0,0,50,3.613a3.615,3.615,0,0,0,3.613,3.554h.355a3.615,3.615,0,0,0,3.613-3.554A3.666,3.666,0,0,0,53.968,0Z" transform="translate(-0.808 10.095)"/>
    <path id="Path_14" data-name="Path 14" class="cls-2" d="M54.009,16.7h-.355A3.577,3.577,0,0,0,50.1,20.313a3.615,3.615,0,0,0,3.613,3.554h.355a3.615,3.615,0,0,0,3.613-3.554A3.847,3.847,0,0,0,54.009,16.7Z" transform="translate(-0.848 3.286)"/>
    <path id="Path_15" data-name="Path 15" class="cls-2" d="M70.609,16.7h-.355A3.577,3.577,0,0,0,66.7,20.313a3.615,3.615,0,0,0,3.613,3.554h.355a3.615,3.615,0,0,0,3.613-3.554A3.76,3.76,0,0,0,70.609,16.7Z" transform="translate(-7.617 3.286)"/>
    <path id="Path_16" data-name="Path 16" class="cls-2" d="M54.009,33.5h-.355A3.577,3.577,0,0,0,50.1,37.113a3.615,3.615,0,0,0,3.613,3.554h.355a3.615,3.615,0,0,0,3.613-3.554A3.758,3.758,0,0,0,54.009,33.5Z" transform="translate(-0.848 -3.564)"/>
    <path id="Path_17" data-name="Path 17" class="cls-1" d="M54.009,50.2h-.355A3.577,3.577,0,0,0,50.1,53.813a3.615,3.615,0,0,0,3.613,3.554h.355a3.615,3.615,0,0,0,3.613-3.554A3.8,3.8,0,0,0,54.009,50.2Z" transform="translate(-0.848 -10.373)"/>
    <path id="Path_18" data-name="Path 18" class="cls-2" d="M70.609,33.5h-.355A3.577,3.577,0,0,0,66.7,37.113a3.615,3.615,0,0,0,3.613,3.554h.355a3.615,3.615,0,0,0,3.613-3.554A3.678,3.678,0,0,0,70.609,33.5Z" transform="translate(-7.617 -3.564)"/>
    <path id="Path_19" data-name="Path 19" class="cls-1" d="M70.609,50.2h-.355A3.577,3.577,0,0,0,66.7,53.813a3.615,3.615,0,0,0,3.613,3.554h.355a3.615,3.615,0,0,0,3.613-3.554A3.719,3.719,0,0,0,70.609,50.2Z" transform="translate(-7.617 -10.373)"/>
    <path id="Path_20" data-name="Path 20" class="cls-2" d="M87.309,33.5h-.355A3.577,3.577,0,0,0,83.4,37.113a3.615,3.615,0,0,0,3.613,3.554h.3a3.583,3.583,0,1,0,0-7.166Z" transform="translate(-14.426 -3.564)"/>
    <path id="Path_21" data-name="Path 21" class="cls-1" d="M87.309,50.2h-.355A3.577,3.577,0,0,0,83.4,53.813a3.615,3.615,0,0,0,3.613,3.554h.3a3.583,3.583,0,1,0,0-7.166Z" transform="translate(-14.426 -10.373)"/>
    <g id="Group_4" data-name="Group 4" transform="translate(19.638 49.007)">
      <path id="Path_22" data-name="Path 22" class="cls-1" d="M4.009,65.7H3.654A3.577,3.577,0,0,0,.1,69.313a3.615,3.615,0,0,0,3.613,3.554h.355a3.615,3.615,0,0,0,3.613-3.554A3.718,3.718,0,0,0,4.009,65.7Z" transform="translate(-0.1 -65.7)"/>
      <path id="Path_23" data-name="Path 23" class="cls-1" d="M4.009,82.4H3.654A3.577,3.577,0,0,0,.1,86.013a3.615,3.615,0,0,0,3.613,3.554h.355a3.615,3.615,0,0,0,3.613-3.554A3.8,3.8,0,0,0,4.009,82.4Z" transform="translate(-0.1 -72.509)"/>
      <path id="Path_24" data-name="Path 24" class="cls-1" d="M4.009,99.2H3.654A3.577,3.577,0,0,0,.1,102.813a3.615,3.615,0,0,0,3.613,3.554h.355a3.615,3.615,0,0,0,3.613-3.554A3.718,3.718,0,0,0,4.009,99.2Z" transform="translate(-0.1 -79.359)"/>
      <path id="Path_25" data-name="Path 25" class="cls-1" d="M4.009,115.9H3.654A3.577,3.577,0,0,0,.1,119.513a3.615,3.615,0,0,0,3.613,3.554h.355a3.615,3.615,0,0,0,3.613-3.554A3.76,3.76,0,0,0,4.009,115.9Z" transform="translate(-0.1 -86.168)"/>
    </g>
    <g id="Group_5" data-name="Group 5" transform="translate(29.529 49.007)">
      <path id="Path_26" data-name="Path 26" class="cls-1" d="M20.709,65.7h-.355A3.577,3.577,0,0,0,16.8,69.313a3.615,3.615,0,0,0,3.613,3.554h.355a3.615,3.615,0,0,0,3.613-3.554A3.758,3.758,0,0,0,20.709,65.7Z" transform="translate(-16.8 -65.7)"/>
      <path id="Path_27" data-name="Path 27" class="cls-1" d="M20.709,82.4h-.355A3.577,3.577,0,0,0,16.8,86.013a3.615,3.615,0,0,0,3.613,3.554h.355a3.615,3.615,0,0,0,3.613-3.554A3.847,3.847,0,0,0,20.709,82.4Z" transform="translate(-16.8 -72.509)"/>
      <path id="Path_28" data-name="Path 28" class="cls-1" d="M20.709,99.2h-.355a3.577,3.577,0,0,0-3.554,3.613,3.615,3.615,0,0,0,3.613,3.554h.355a3.615,3.615,0,0,0,3.613-3.554A3.758,3.758,0,0,0,20.709,99.2Z" transform="translate(-16.8 -79.359)"/>
      <path id="Path_29" data-name="Path 29" class="cls-1" d="M20.709,115.9h-.355a3.577,3.577,0,0,0-3.554,3.613,3.615,3.615,0,0,0,3.613,3.554h.355a3.615,3.615,0,0,0,3.613-3.554,3.8,3.8,0,0,0-3.672-3.613Z" transform="translate(-16.8 -86.168)"/>
    </g>
    <g id="Group_6" data-name="Group 6" transform="translate(39.361 49.007)">
      <path id="Path_30" data-name="Path 30" class="cls-1" d="M37.309,65.7h-.355A3.577,3.577,0,0,0,33.4,69.313a3.615,3.615,0,0,0,3.613,3.554h.3a3.583,3.583,0,1,0,0-7.166Z" transform="translate(-33.4 -65.7)"/>
      <path id="Path_31" data-name="Path 31" class="cls-1" d="M37.309,82.4h-.355A3.577,3.577,0,0,0,33.4,86.013a3.615,3.615,0,0,0,3.613,3.554h.3a3.615,3.615,0,0,0,3.613-3.554A3.666,3.666,0,0,0,37.309,82.4Z" transform="translate(-33.4 -72.509)"/>
      <path id="Path_32" data-name="Path 32" class="cls-1" d="M37.309,99.2h-.355a3.577,3.577,0,0,0-3.554,3.613,3.615,3.615,0,0,0,3.613,3.554h.3a3.583,3.583,0,1,0,0-7.166Z" transform="translate(-33.4 -79.359)"/>
      <path id="Path_33" data-name="Path 33" class="cls-1" d="M37.309,115.9h-.355a3.577,3.577,0,0,0-3.554,3.613,3.615,3.615,0,0,0,3.613,3.554h.3a3.583,3.583,0,1,0,0-7.166Z" transform="translate(-33.4 -86.168)"/>
    </g>
    <g id="Group_7" data-name="Group 7" transform="translate(49.252 49.007)">
      <path id="Path_34" data-name="Path 34" class="cls-1" d="M54.009,65.7h-.355A3.577,3.577,0,0,0,50.1,69.313a3.615,3.615,0,0,0,3.613,3.554h.355a3.615,3.615,0,0,0,3.613-3.554A3.758,3.758,0,0,0,54.009,65.7Z" transform="translate(-50.1 -65.7)"/>
      <path id="Path_35" data-name="Path 35" class="cls-1" d="M54.009,82.4h-.355A3.577,3.577,0,0,0,50.1,86.013a3.615,3.615,0,0,0,3.613,3.554h.355a3.615,3.615,0,0,0,3.613-3.554A3.847,3.847,0,0,0,54.009,82.4Z" transform="translate(-50.1 -72.509)"/>
      <path id="Path_36" data-name="Path 36" class="cls-1" d="M54.009,99.2h-.355a3.577,3.577,0,0,0-3.554,3.613,3.615,3.615,0,0,0,3.613,3.554h.355a3.615,3.615,0,0,0,3.613-3.554A3.758,3.758,0,0,0,54.009,99.2Z" transform="translate(-50.1 -79.359)"/>
      <path id="Path_37" data-name="Path 37" class="cls-1" d="M54.009,115.9h-.355a3.577,3.577,0,0,0-3.554,3.613,3.615,3.615,0,0,0,3.613,3.554h.355a3.615,3.615,0,0,0,3.613-3.554,3.8,3.8,0,0,0-3.672-3.613Z" transform="translate(-50.1 -86.168)"/>
    </g>
    <g id="Group_8" data-name="Group 8" transform="translate(59.083 49.007)">
      <path id="Path_38" data-name="Path 38" class="cls-1" d="M70.609,65.7h-.355A3.577,3.577,0,0,0,66.7,69.313a3.615,3.615,0,0,0,3.613,3.554h.355a3.615,3.615,0,0,0,3.613-3.554A3.678,3.678,0,0,0,70.609,65.7Z" transform="translate(-66.7 -65.7)"/>
      <path id="Path_39" data-name="Path 39" class="cls-1" d="M70.609,82.4h-.355A3.577,3.577,0,0,0,66.7,86.013a3.615,3.615,0,0,0,3.613,3.554h.355a3.615,3.615,0,0,0,3.613-3.554A3.76,3.76,0,0,0,70.609,82.4Z" transform="translate(-66.7 -72.509)"/>
      <path id="Path_40" data-name="Path 40" class="cls-1" d="M70.609,99.2h-.355a3.577,3.577,0,0,0-3.554,3.613,3.615,3.615,0,0,0,3.613,3.554h.355a3.615,3.615,0,0,0,3.613-3.554A3.678,3.678,0,0,0,70.609,99.2Z" transform="translate(-66.7 -79.359)"/>
      <path id="Path_41" data-name="Path 41" class="cls-1" d="M70.609,115.9h-.355a3.577,3.577,0,0,0-3.554,3.613,3.615,3.615,0,0,0,3.613,3.554h.355a3.615,3.615,0,0,0,3.613-3.554,3.719,3.719,0,0,0-3.672-3.613Z" transform="translate(-66.7 -86.168)"/>
    </g>
    <g id="Group_9" data-name="Group 9" transform="translate(68.974 49.007)">
      <path id="Path_42" data-name="Path 42" class="cls-1" d="M87.309,65.7h-.355A3.577,3.577,0,0,0,83.4,69.313a3.615,3.615,0,0,0,3.613,3.554h.3a3.583,3.583,0,1,0,0-7.166Z" transform="translate(-83.4 -65.7)"/>
      <path id="Path_43" data-name="Path 43" class="cls-1" d="M87.309,82.4h-.355A3.577,3.577,0,0,0,83.4,86.013a3.615,3.615,0,0,0,3.613,3.554h.3a3.615,3.615,0,0,0,3.613-3.554A3.666,3.666,0,0,0,87.309,82.4Z" transform="translate(-83.4 -72.509)"/>
      <path id="Path_44" data-name="Path 44" class="cls-1" d="M87.309,99.2h-.355a3.577,3.577,0,0,0-3.554,3.613,3.615,3.615,0,0,0,3.613,3.554h.3a3.583,3.583,0,1,0,0-7.166Z" transform="translate(-83.4 -79.359)"/>
      <path id="Path_45" data-name="Path 45" class="cls-1" d="M87.309,115.9h-.355a3.577,3.577,0,0,0-3.554,3.613,3.615,3.615,0,0,0,3.613,3.554h.3a3.583,3.583,0,1,0,0-7.166Z" transform="translate(-83.4 -86.168)"/>
    </g>
  </g>
</svg>
