<svg width="100" height="100" viewBox="0 0 760 760" xmlns="http://www.w3.org/2000/svg">
  <style>
    rect {
      fill: #41b8c2;
    }
    path {
      fill: #1d1f22;
    }
    @media (prefers-color-scheme: dark) {
      path {
        fill: rgb(250, 250, 250);
      }
    }
  </style>
  <rect x="23.22" y="597.69" width="715.91" height="68.94"/><path d="M737.38,524.87H638.81l1.36-249.28a57.44,57.44,0,0,0-57.45-57.78h-8.38a57.45,57.45,0,0,0-57.46,57.91l1.89,249.15H422.22V266.73a140,140,0,0,1,139.95-140h35.25a140,140,0,0,1,140,140Z"/><path d="M338.38,126.77H239.81l1.36,249.28a57.45,57.45,0,0,1-57.45,57.79h-8.38a57.46,57.46,0,0,1-57.46-57.92l1.89-249.15H23.22V384.92a140,140,0,0,0,140,140h35.25a140,140,0,0,0,140-139.95Z"/>
</svg>