<?xml version="1.0" encoding="utf-8"?>
<!-- Generator: Adobe Illustrator 23.0.6, SVG Export Plug-In . SVG Version: 6.00 Build 0)  -->
<svg version="1.1" id="Layer_1" xmlns="http://www.w3.org/2000/svg" xmlns:xlink="http://www.w3.org/1999/xlink" x="0px" y="0px"
	 viewBox="0 0 61.6 61.6" style="enable-background:new 0 0 61.6 61.6;" xml:space="preserve">
<style type="text/css">
	.st0{fill:#BF5700;}
</style>
<g>
	<g>
		<polygon class="st0" points="30.9,21.4 31,21.4 31,21.3 30.9,21.3 		"/>
		<path class="st0" d="M36.4,16.8c-1.1-0.2-2.2-0.3-3.2-0.3c-0.5,0-1,0.1-1.4,0.2l-0.2-6.4v-1C32,9.1,32.6,9,33.3,9
			c0.9,0,1.9,0.2,3,0.3c0.9,0.1,1.9,0.3,2.9,0.3l0.3,7.6C38.4,17.1,37.4,17,36.4,16.8L36.4,16.8z M25.5,16.8c-1,0.2-2,0.3-3.1,0.4
			l0.3-7.6c1-0.1,2-0.2,2.9-0.3c1.1-0.2,2.1-0.3,3-0.3c0.7,0,1.2,0.1,1.7,0.3v1l-0.2,6.4c-0.4-0.1-0.9-0.2-1.4-0.2
			C27.7,16.5,26.7,16.6,25.5,16.8L25.5,16.8z M41.7,12.3v-1.4h-0.9V8.4h-0.6c-1.3,0-2.5-0.2-3.8-0.4c-1.1-0.2-2.2-0.3-3.2-0.3
			c-0.9,0-1.7,0.1-2.3,0.4c-0.6-0.3-1.4-0.4-2.3-0.4c-1,0-2,0.2-3.2,0.3c-1.2,0.2-2.5,0.4-3.8,0.4H21v2.5h-0.9v1.5H21v2h-0.9v1.4H21
			v2.7h0.6c1.4,0,2.7-0.2,4-0.4c1.1-0.2,2.1-0.3,3-0.3c0.7,0,1.2,0.1,1.7,0.3l0,0h1.2l0,0c0.4-0.2,0.9-0.3,1.7-0.3
			c0.9,0,1.9,0.2,3,0.3c1.3,0.2,2.6,0.4,4,0.4h0.6v-2.7h0.9v-1.4h-0.9v-2L41.7,12.3L41.7,12.3z"/>
		<path class="st0" d="M25.7,10.3c-0.1,0-0.1,0-0.2,0c-0.6,0.1-1.1,0.2-1.7,0.2v1c0.6-0.1,1.3-0.2,1.9-0.2l0,0V10.3L25.7,10.3z"/>
		<path class="st0" d="M26.4,10.2v1c1-0.1,2-0.2,2.8-0.2v-1C28.4,10,27.4,10.1,26.4,10.2L26.4,10.2z"/>
		<path class="st0" d="M25.7,14.7c-0.1,0-0.1,0-0.2,0c-0.6,0.1-1.2,0.2-1.9,0.2v1c0.7-0.1,1.4-0.2,2.1-0.3l0,0V14.7L25.7,14.7z"/>
		<path class="st0" d="M26.4,14.6v1c1-0.1,1.8-0.2,2.6-0.2v-1C28.2,14.4,27.3,14.5,26.4,14.6L26.4,14.6z"/>
		<path class="st0" d="M25.5,12.6v1h0.1c1.3-0.2,2.5-0.4,3.5-0.3v-1C28,12.2,26.8,12.4,25.5,12.6L25.5,12.6z"/>
		<path class="st0" d="M24.8,12.7c-0.4,0-0.7,0.1-1.1,0.1v1c0.4,0,0.8-0.1,1.1-0.1V12.7L24.8,12.7z"/>
		<path class="st0" d="M35.1,10.2c-0.9-0.1-1.7-0.2-2.4-0.1v1c0.7-0.1,1.5,0,2.3,0.1L35.1,10.2L35.1,10.2z"/>
		<path class="st0" d="M38.1,10.6c-0.6-0.1-1.2-0.2-1.7-0.2c-0.2,0-0.4-0.1-0.6-0.1v1c0.2,0,0.3,0,0.5,0.1c0.6,0.1,1.2,0.2,1.9,0.2
			L38.1,10.6L38.1,10.6z"/>
		<path class="st0" d="M34.8,12.4c-0.7-0.1-1.4-0.1-2.1-0.1v1c0.6,0,1.3,0,2.1,0.1V12.4L34.8,12.4z"/>
		<path class="st0" d="M38.2,12.8c-0.6-0.1-1.2-0.2-1.8-0.2c-0.3,0-0.6-0.1-0.8-0.1v1c0.2,0,0.4,0.1,0.7,0.1c0.7,0.1,1.3,0.2,2,0.3
			L38.2,12.8L38.2,12.8z"/>
		<path class="st0" d="M36.3,15.7c0.7,0.1,1.3,0.2,2,0.3v-1c-0.6-0.1-1.3-0.2-1.9-0.2h-0.1V15.7L36.3,15.7z"/>
		<path class="st0" d="M35.6,14.6c-1-0.1-1.9-0.2-2.7-0.2v1c0.8,0,1.7,0.1,2.7,0.2V14.6L35.6,14.6z"/>
		<path class="st0" d="M29.7,30.2l1.2-3.1l1.2,3.1l3.4,0.2L33,32.6l0.8,3.3L31,34l-2.9,1.8l0.8-3.3l-2.6-2.2L29.7,30.2L29.7,30.2z
			 M22.1,29.1L22.1,29.1l5.4,4l-2.1,6.4l0,0l0,0l5.5-4l5.5,4l0,0c0,0,0,0,0-0.1L34.3,33l5.4-4l0,0c0,0,0,0,0-0.1c0,0,0,0-0.1,0l0,0
			h-6.7L31,22.6l0,0c0,0,0-0.1-0.1-0.1c0,0-0.1,0-0.1,0.1l0,0L28.7,29L22.1,29.1L22.1,29.1C22.1,29,22,29,22.1,29.1
			C22,29.1,22,29.1,22.1,29.1L22.1,29.1z"/>
		<path class="st0" d="M44.5,37.2c-0.5,0.5-1.1,0.9-1.8,1.1c0.1-0.7,0.4-1.4,0.9-1.9s1.1-0.9,1.8-1.1C45.3,36,45,36.6,44.5,37.2
			L44.5,37.2z M41.8,32.9c-0.1-0.7,0-1.5,0.4-2.1c0.5,0.5,0.8,1.2,0.9,1.9c0.1,0.7,0,1.5-0.4,2.1C42.2,34.3,41.9,33.7,41.8,32.9
			L41.8,32.9z M43.3,27.4c-0.1-0.7-0.1-1.5,0.2-2.1c0.5,0.5,0.9,1.2,1,1.9s0.1,1.5-0.2,2.1C43.8,28.8,43.4,28.1,43.3,27.4L43.3,27.4
			z M46.8,29c0.1,0.7-0.1,1.4-0.5,2.1c-0.4,0.6-0.9,1.1-1.6,1.4c-0.1-0.7,0.1-1.4,0.5-2.1C45.6,29.8,46.1,29.4,46.8,29L46.8,29z
			 M41.4,42.7c-0.6,0.4-1.3,0.7-2,0.7c0.2-0.7,0.7-1.3,1.3-1.7s1.3-0.7,2-0.7C42.5,41.7,42,42.3,41.4,42.7L41.4,42.7z M39.7,38
			c0.1-0.7,0.3-1.4,0.8-2c0.4,0.6,0.5,1.3,0.5,2.1c-0.1,0.7-0.3,1.4-0.8,2C39.8,39.5,39.7,38.8,39.7,38L39.7,38z M37.8,42.9
			c-0.2,0.7-0.6,1.3-1.2,1.8c-0.2-0.7-0.2-1.4,0-2.1c0.2-0.7,0.6-1.3,1.2-1.8C38,41.5,38,42.2,37.8,42.9L37.8,42.9z M38.9,46.1
			c-0.4,0.6-0.9,1.1-1.6,1.4c-0.5,0.2-1,0.3-1.5,0.3l0,0c-0.2,0-0.4,0-0.7-0.1c0.4-0.6,0.9-1.1,1.6-1.4C37.5,46.1,38.2,46,38.9,46.1
			L38.9,46.1z M32.6,46.4c0.3-0.7,0.9-1.2,1.5-1.5c0.1,0.7-0.1,1.4-0.4,2.1c-0.3,0.6-0.9,1.2-1.5,1.5C32.2,47.8,32.3,47.1,32.6,46.4
			L32.6,46.4z M24.5,47.5c-0.7-0.3-1.2-0.8-1.6-1.4c0.7-0.1,1.4,0,2.1,0.3s1.2,0.8,1.6,1.4C25.9,47.9,25.2,47.8,24.5,47.5L24.5,47.5
			z M24,42.9c-0.2-0.7-0.2-1.4,0-2.1c0.6,0.5,1,1.1,1.2,1.8c0.2,0.7,0.2,1.4,0,2.1C24.6,44.3,24.2,43.6,24,42.9L24,42.9z M27.7,44.9
			c0.6,0.3,1.2,0.8,1.5,1.5s0.5,1.4,0.4,2.1c-0.6-0.3-1.2-0.9-1.5-1.5C27.7,46.4,27.6,45.6,27.7,44.9L27.7,44.9z M20.4,42.7
			c-0.6-0.4-1-1-1.3-1.7c0.7,0,1.4,0.2,2,0.7c0.6,0.4,1,1,1.3,1.7C21.7,43.4,21,43.2,20.4,42.7L20.4,42.7z M21.3,36.1
			c0.4,0.6,0.7,1.2,0.8,2c0.1,0.7-0.1,1.4-0.5,2.1c-0.5-0.6-0.7-1.3-0.8-2C20.8,37.4,20.9,36.7,21.3,36.1L21.3,36.1z M17.4,37.2
			c-0.5-0.5-0.8-1.2-0.9-1.9c0.7,0.2,1.3,0.5,1.8,1.1c0.5,0.5,0.8,1.2,0.9,1.9C18.5,38.1,17.8,37.7,17.4,37.2L17.4,37.2z M17.1,32.6
			c-0.7-0.3-1.2-0.8-1.6-1.4S15,29.8,15,29.1c0.7,0.3,1.2,0.8,1.6,1.4S17.2,31.8,17.1,32.6L17.1,32.6z M17.3,27.2
			c0.1-0.7,0.5-1.4,1-1.9c0.3,0.7,0.4,1.4,0.2,2.1c-0.2,0.7-0.5,1.4-1,1.9C17.2,28.6,17.2,27.9,17.3,27.2L17.3,27.2z M18.8,32.8
			c0.1-0.7,0.4-1.4,0.9-1.9c0.3,0.7,0.4,1.4,0.4,2.1c-0.1,0.7-0.4,1.4-0.9,1.9C18.8,34.2,18.7,33.5,18.8,32.8L18.8,32.8z M44.5,33.7
			c1.1-0.3,2.1-1.1,2.7-2.1c0.6-1,0.8-2.2,0.5-3.3l-0.1-0.5L47,27.9c-0.6,0.2-1.1,0.4-1.5,0.8c0.1-0.6,0.1-1.1,0-1.7
			c-0.2-1.2-0.9-2.2-1.8-2.8l-0.4-0.3L43,24.3c-0.6,1-0.8,2.2-0.6,3.3c0.2,1.1,0.9,2.2,1.8,2.8c-0.2,0.4-0.3,0.8-0.3,1.2
			c-0.3-0.8-0.8-1.4-1.4-2L42,29.4l-0.3,0.4c-0.7,0.9-1,2.1-0.8,3.3c0.2,1.2,0.7,2.2,1.6,2.9l0,0c-0.3,0.4-0.5,0.8-0.6,1.2
			c-0.1-0.8-0.4-1.6-1-2.2l-0.3-0.4l-0.4,0.3c-0.9,0.8-1.4,1.9-1.5,3c-0.1,1.2,0.3,2.3,1,3.2l0,0c-0.3,0.3-0.6,0.6-0.8,1
			c0.1-0.8-0.1-1.6-0.5-2.4l-0.2-0.5l-0.4,0.3c-1,0.6-1.7,1.5-2.1,2.7c-0.3,1.1-0.2,2.3,0.3,3.4l0,0c-0.4,0.2-0.7,0.5-1,0.8
			c0.2-0.8,0.2-1.6,0-2.4l-0.1-0.5l-0.5,0.2c-1.1,0.4-2,1.2-2.6,2.2c-0.5,1-0.7,2.1-0.4,3.2c-0.2,0.1-0.3,0.2-0.5,0.3
			c-0.2-0.1-0.3-0.2-0.5-0.3c0.3-1.1,0.1-2.2-0.4-3.2c-0.6-1-1.5-1.8-2.6-2.2L27,43.6l-0.2,0.5c-0.2,0.8-0.2,1.6,0,2.4
			c-0.3-0.3-0.7-0.6-1-0.8l0,0c0.5-1.1,0.6-2.2,0.3-3.4c-0.3-1.1-1.1-2.1-2.1-2.7l-0.4-0.3l-0.2,0.5c-0.4,0.7-0.5,1.6-0.5,2.4
			c-0.2-0.4-0.5-0.7-0.8-1l0,0c0.7-0.9,1.1-2.1,1-3.2c-0.1-1.2-0.6-2.2-1.5-3l-0.4-0.3l-0.3,0.4c-0.5,0.7-0.8,1.4-1,2.2
			c-0.2-0.4-0.4-0.8-0.6-1.2l0,0c0.9-0.8,1.5-1.8,1.6-2.9c0.2-1.2-0.1-2.3-0.8-3.3l-0.3-0.4l-0.4,0.3c-0.6,0.5-1.1,1.2-1.4,2
			c-0.1-0.4-0.2-0.8-0.3-1.2c0.9-0.7,1.6-1.7,1.8-2.8c0.2-1.2,0-2.3-0.6-3.3l-0.3-0.4l-0.4,0c-1,0.7-1.6,1.7-1.8,2.8
			c-0.1,0.6-0.1,1.2,0,1.7c-0.5-0.4-1-0.6-1.5-0.8l-0.5-0.2l-0.1,0.5c-0.3,1.1-0.1,2.3,0.5,3.3c0.6,1,1.5,1.8,2.7,2.1l0.4,0.1
			c0,0.4,0.1,0.7,0.3,1.1c-0.6-0.4-1.3-0.6-2.1-0.7h-0.5v0.5c0,1.2,0.4,2.3,1.2,3.2c0.8,0.9,1.9,1.4,3,1.5h0.4
			c0.1,0.3,0.3,0.7,0.5,1c-0.5-0.2-1-0.3-1.6-0.3c-0.2,0-0.4,0-0.6,0L18,40.1l0.1,0.5c0.2,1.2,0.9,2.2,1.8,2.8
			c0.8,0.6,1.7,0.9,2.7,0.9c0.2,0,0.4,0,0.6,0l0.4-0.1c0.2,0.3,0.4,0.6,0.7,0.9c-0.7-0.1-1.5,0-2.2,0.2l-0.5,0.2l0.2,0.5
			c0.5,1.1,1.3,1.9,2.4,2.4c0.6,0.3,1.2,0.4,1.9,0.4c0.5,0,1-0.1,1.5-0.2l0.4-0.1c0.6,0.5,1.3,1,2.2,1.7c-0.4,0.3-0.9,0.6-1.4,0.9
			l0.9,0.6c0.5-0.3,1-0.6,1.4-0.9c0.4,0.3,0.9,0.6,1.4,0.9l0.9-0.6c-0.5-0.3-1-0.6-1.4-0.9c0.9-0.6,1.6-1.2,2.2-1.7l0.4,0.1
			c0.5,0.2,1,0.2,1.5,0.2l0,0c0.6,0,1.3-0.1,1.9-0.4c1.1-0.5,1.9-1.3,2.4-2.4l0.2-0.5l-0.5-0.2c-0.7-0.2-1.5-0.3-2.2-0.2
			c0.3-0.3,0.5-0.6,0.7-0.9l0.4,0.1c0.2,0,0.4,0,0.6,0l0,0c1,0,1.9-0.3,2.7-0.9c0.9-0.7,1.6-1.7,1.8-2.8l0.1-0.5h-0.8
			c-0.2,0-0.4,0-0.6,0c-0.6,0-1.1,0.1-1.6,0.3c0.2-0.3,0.4-0.6,0.5-1h0.4c1.2-0.1,2.2-0.6,3-1.5s1.2-2,1.2-3.2v-0.5h-0.5
			c-0.8,0.1-1.5,0.3-2.1,0.7c0.1-0.3,0.2-0.7,0.3-1.1L44.5,33.7L44.5,33.7z"/>
		<path class="st0" d="M44.6,43.9c-1,1.4-2.1,2.8-3.5,4.1c-4.2,3.8-8.9,6-10.2,6.5c-1.3-0.6-6-2.7-10.2-6.5
			c-1.3-1.3-2.5-2.6-3.5-4.1c-4.7-6.9-5.4-15-5.4-21.3l0,0l19-1.1l19,1.1C50,28.9,49.3,36.9,44.6,43.9L44.6,43.9z M12.9,6.4
			c3.5-0.4,11.5-1.2,18-1.2s14.5,0.8,18,1.2l1,13.9h-19h-19L12.9,6.4L12.9,6.4z M51.9,4.8l-0.8-0.1C51,4.7,39.7,3.3,31,3.3l0,0l0,0
			c-8.8,0-20,1.4-20.1,1.4L10,4.8v15.5l0,0v2.2c0,6.6,0.7,15,5.7,22.4c1,1.5,2.2,2.9,3.7,4.3l0,0l0,0c2.7,2.6,6.4,5.1,11.6,8l0,0
			l0,0l0,0l0,0c5.2-2.9,8.8-5.4,11.6-8l0,0l0,0c1.4-1.4,2.6-2.8,3.7-4.3C51.4,37.5,52,29,52,22.5v-0.3l0,0L51.9,4.8L51.9,4.8z"/>
	</g>
</g>
</svg>
