<svg width="95" height="127" viewBox="0 0 95 127" fill="none" xmlns="http://www.w3.org/2000/svg">
<path d="M0.790029 47.1L0.0300293 47.63L0.820029 48.09L31.7 48.48V47.63V46.72L0.790029 47.1Z" fill="#E21C1F"/>
<path d="M47.46 0L47.01 0.79L46.62 31.73H47.46H48.38L48 0.76L47.46 0Z" fill="#E21C1F"/>
<path d="M47.5 0V31.73L63.33 47.6H95L47.5 0Z" fill="#F03237"/>
<path d="M47.5 0L0 47.6H31.67L47.5 31.73V0Z" fill="#E21C1F"/>
<path d="M0 47.6L47.5 95.2V63.46L31.67 47.6H0Z" fill="#D0070B"/>
<path d="M63.33 79.29V80.21L94.25 79.83L95 79.29L94.21 78.84L63.33 78.45V79.29Z" fill="#4D5560"/>
<path d="M47.54 95.12H46.62L47 126.1L47.54 126.85L47.99 126.06L48.38 95.12H47.54Z" fill="#4D5560"/>
<path d="M63.33 79.4L47.5 95.27V127L95 79.4H63.33Z" fill="#424855"/>
<path d="M0 79.33L47.5 126.93V95.19L31.67 79.33H0Z" fill="#353B47"/>
<path d="M47.5 63.46L63.33 79.33H95L47.5 31.73V63.46Z" fill="#4D5560"/>
</svg>
