<svg id="Layer_1" data-name="Layer 1" xmlns="http://www.w3.org/2000/svg" viewBox="0 0 500 500"><defs><style>.cls-1{fill:#7e7e7e;}.cls-2{fill:#0993fd;}</style></defs><path class="cls-1" d="M198.91,351H392.56L295.74,194.89l-23.3,37.56,48.47,78.12H224Z"/><path class="cls-1" d="M159.52,310.57H71.65L196.28,109.69l43.93,70.81L263.51,143,196.28,34.58,0,351H134.46Z"/><path class="cls-2" d="M196.28,149.05,100.77,303h46.61l48.9-78.82L245.18,303h46.6Z"/><path d="M179.09,368.5,228,289.68l-23.3-37.56L107.44,408.88H302l-25-40.38Z"/><path d="M260.23,237.74l43.49-70.11L428.35,368.5h-87l25.05,40.38H500L303.72,92.52,236.93,200.18Z"/><path class="cls-2" d="M279.64,358.53,320.91,425H71.65l41.26-66.51H66.31L0,465.42H392.56L326.24,358.53Z"/></svg>