<?xml version="1.0" encoding="UTF-8"?>
<svg xmlns="http://www.w3.org/2000/svg" xmlns:xlink="http://www.w3.org/1999/xlink" version="1.1" id="Layer_1" x="0px" y="0px" viewBox="0 0 116.5 44.4" style="enable-background:new 0 0 116.5 44.4;" xml:space="preserve">
<style type="text/css">
	.st0{fill-rule:evenodd;clip-rule:evenodd;fill:#009ADD;}
	.st1{enable-background:new    ;}
	.st2{fill:#009ADD;}
</style>
<g id="Group-16" transform="translate(0.000000, 0.436893)">
	<path id="Fill-1" class="st0" d="M61.9,25.1c-5.2,0-10.4,0-15.5,0c-0.1,0-0.1,0-0.2-0.1c-0.3-0.6,0-1.2,0.2-1.8   c0.7-2.5,2-4.5,4.3-5.7c4.4-2.3,9.4-0.1,11.1,4.7c0.3,0.9,0.5,1.7,0.6,2.6C62.3,25.1,62.1,25.1,61.9,25.1 M57,10.9   c-5.7-0.8-10.4,1.1-14.2,5.2c-3.9,4.3-4.9,9.4-3.9,14.9c0.8,4.4,3.1,7.9,7,10.3c3.4,2.1,7.1,2.8,11,2.5c3.3-0.3,6.3-1.4,8.9-3.5   c1.1-0.9,1.4-2.3,0.8-3.6c-0.9-1.7-2.9-2.2-4.6-1c-2,1.4-4.1,2.1-6.5,2.2c-4.8,0.1-8.3-2.5-9.4-7.2C46,30,46,29.9,46.8,29.9   c3.4,0,6.9,0,10.3,0l0,0c3.5,0,6.9,0,10.4,0c1.4,0,2.3-0.8,2.3-2.2c0-1.5-0.2-3.1-0.5-4.6C67.9,16.7,63.7,11.8,57,10.9"></path>
	<g id="Group-5" transform="translate(0.000000, 0.113399)">
		<g id="Clip-4">
		</g>
		<path id="Fill-3" class="st0" d="M18.9-0.3c-2-0.3-4-0.3-5.9,0c-3.6,0.5-6.3,3-7,6.5C5.6,8,5.6,9.8,5.6,11.6    c0,0.4-0.1,0.6-0.6,0.6c-0.7,0-1.3,0-2,0c-1.7,0.1-3,1.4-3,3.1s1.3,2.9,3,3c0.5,0,1,0,1.6,0c1,0,1-0.2,1,1c0,6.9,0,13.7,0,20.6    c0,1.1,0.3,2,1,2.8c1,1.1,2.6,1.5,4,0.9c1.5-0.6,2.4-1.8,2.4-3.5c0-3.5,0-7,0-10.5c0-3.6,0-7.1,0-10.7c0-0.5,0.1-0.7,0.7-0.7    c1.6,0,3.2,0,4.8,0c1.3,0,2.4-0.8,2.8-2c0.7-2.1-0.7-4-3-4.1c-1.6,0-3.2,0-4.8,0c-0.4,0-0.6-0.1-0.6-0.5c0-0.7,0-1.3,0-2    c0.2-2.3,1.3-3.7,3.3-3.9c0.7-0.1,1.4,0,2.2,0c1.7,0,3-1.2,3.1-2.9C21.6,1.3,20.4-0.1,18.9-0.3"></path>
	</g>
	<g id="Group-8" transform="translate(71.033760, 11.732707)">
		<g id="Clip-7">
		</g>
		<path id="Fill-6" class="st0" d="M33,1.7c-0.6-1.4-1.9-2.2-3.5-2.3c-1.1-0.1-2.1,0.5-2.9,1.3c-4.8,4.8-9.7,9.5-14.5,14.3    c-3.6,3.6-7.3,7.2-10.9,10.8c-1.9,1.9-1.2,5,1.3,6c1.8,0.7,3.2,0.1,4.5-1.2c3.7-3.7,7.5-7.4,11.2-11.1c4.7-4.6,9.3-9.2,14-13.8    C33.2,4.7,33.6,3.1,33,1.7"></path>
	</g>
	<path id="Fill-9" class="st0" d="M32.8,3.7c0-0.2,0-0.5,0-0.7c-0.1-1.1-0.7-1.9-1.6-2.5c-2.1-1.4-5.2-0.2-5.5,2.1   c-0.1,0.3-0.1,0.6-0.1,0.9c0,12.1,0,24.1,0,36.2c0,0.8,0.1,1.5,0.4,2.2c0.7,1.4,2.3,2.2,4,1.8c1.5-0.3,2.7-1.6,2.9-3.1   c-0.1-0.2-0.1-0.5-0.1-0.7C32.8,28,32.8,15.9,32.8,3.7z"></path>
	<g id="Group-13" transform="translate(91.179889, 28.205651)">
		<g id="Clip-12">
		</g>
		<path id="Fill-11" class="st0" d="M7.1,4.4C6,3.4,5.5,2.2,5.5,0.6c0,0,0-0.1,0-0.3c0-0.3,0.2-0.7-0.2-0.9C5-0.7,4.8-0.3,4.6-0.1    C3.5,0.9,2.4,2,1.4,3.1c-1.6,1.7-1.6,4.6,0,6.2c1.8,1.9,3.6,3.6,5.5,5.4c1.1,1,2.4,1.2,3.8,0.7c2.7-1,3.3-4.2,1.3-6.2    C10.3,7.6,8.7,6,7.1,4.4"></path>
	</g>
	<path id="Fill-14" class="st0" d="M77.2,22.5c1.2,1.2,1.7,2.6,1.4,4.2c0,0.2-0.2,0.5,0.1,0.7c0.3,0.2,0.5,0,0.7-0.2   c1-1,2.1-2.1,3.1-3.1c1.9-1.9,2-4.8,0.1-6.8c-1.7-1.7-3.4-3.3-5-5c-0.7-0.7-1.6-1.1-2.8-1.1c-0.3,0-0.7,0-1.1,0.2   c-2.7,0.9-3.5,4.1-1.5,6.2C73.9,19.2,75.6,20.8,77.2,22.5"></path>
</g>
<g class="st1">
	<path class="st2" d="M112.8,36.8c0.6,0,1.3,0.2,1.8,0.5c0.6,0.3,1.1,0.8,1.4,1.4c0.3,0.6,0.5,1.2,0.5,1.9c0,0.7-0.2,1.3-0.5,1.9   c-0.3,0.6-0.8,1.1-1.4,1.4c-0.6,0.3-1.2,0.5-1.9,0.5s-1.3-0.2-1.9-0.5c-0.6-0.3-1.1-0.8-1.4-1.4c-0.3-0.6-0.5-1.2-0.5-1.9   c0-0.7,0.2-1.3,0.5-1.9c0.3-0.6,0.8-1.1,1.4-1.4C111.5,37,112.1,36.8,112.8,36.8z M112.8,37.6c-0.5,0-1,0.1-1.5,0.4   s-0.8,0.6-1.1,1.1c-0.3,0.5-0.4,1-0.4,1.5c0,0.5,0.1,1,0.4,1.5c0.3,0.5,0.6,0.8,1.1,1.1s1,0.4,1.5,0.4c0.5,0,1-0.1,1.5-0.4   c0.5-0.3,0.8-0.6,1.1-1.1s0.4-1,0.4-1.5c0-0.5-0.1-1-0.4-1.5c-0.3-0.5-0.6-0.9-1.1-1.1C113.8,37.7,113.3,37.6,112.8,37.6z    M111.1,42.6v-4h0.8c0.8,0,1.2,0,1.3,0c0.3,0,0.5,0.1,0.6,0.2c0.1,0.1,0.3,0.2,0.4,0.4c0.1,0.2,0.1,0.4,0.1,0.6   c0,0.3-0.1,0.5-0.3,0.7c-0.2,0.2-0.5,0.3-0.8,0.4c0.1,0,0.2,0.1,0.3,0.1c0.1,0.1,0.2,0.2,0.3,0.3c0,0,0.1,0.2,0.3,0.5l0.5,0.8h-1   l-0.3-0.6c-0.2-0.4-0.4-0.7-0.6-0.8c-0.1-0.1-0.3-0.2-0.6-0.2h-0.2v1.6H111.1z M111.9,40.3h0.3c0.5,0,0.8,0,0.9-0.1   c0.1,0,0.2-0.1,0.3-0.2c0.1-0.1,0.1-0.2,0.1-0.3c0-0.1,0-0.2-0.1-0.3c-0.1-0.1-0.2-0.1-0.3-0.2c-0.1,0-0.4-0.1-0.9-0.1h-0.3V40.3z"></path>
</g>
</svg>
