<svg width="203" height="203" viewBox="0 0 203 203" fill="none" xmlns="http://www.w3.org/2000/svg">
  <style>
    path {
      fill: #14120F;
    }
    @media (prefers-color-scheme: dark) {
      path {
        fill: #fff;
      }
    }
</style>
<path d="M101.5 101.5H152.25V152.25H203V203H152.25C142.583 203 133.883 200.777 126.15 196.33C118.513 191.98 112.472 185.938 108.025 178.205C103.675 170.568 101.5 161.917 101.5 152.25V101.5ZM0 127.02C0 122.283 1.11167 117.982 3.335 114.115C5.55833 110.152 8.60333 107.058 12.47 104.835C16.4333 102.612 20.7833 101.5 25.52 101.5C30.2567 101.5 34.5583 102.612 38.425 104.835C42.2917 107.058 45.2883 110.152 47.415 114.115C49.6383 117.982 50.75 122.283 50.75 127.02V203H0V127.02ZM50.75 0H152.25V50.75H203V101.5H152.25L50.75 0Z" fill="#14120F"/>
</svg>
