<svg xmlns="http://www.w3.org/2000/svg" id="Layer_1" data-name="Layer 1" viewBox="0 0 1046.16 1046.16"><defs><style>.cls-2{fill:#ffaa0b}</style></defs><circle cx="523.08" cy="523.08" r="492.45" fill="none" stroke="#ffaa0b" stroke-miterlimit="10" stroke-width="61.26"/><path d="M650.49 449.45a73.19 73.19 0 0 0-75 73c0 41.37 32.8 73.87 73.8 73.75a73.39 73.39 0 0 0 1.16-146.76zM408.2 499.21v-6.49l-.6-.31-48.47 46.77.19.54c.7 0 1.41.11 2.11.11 14.79 0 29.58 0 44.36.08 2 0 2.44-.67 2.43-2.53-.07-12.72-.03-25.45-.02-38.17z" class="cls-2"/><path d="M523.08 141.27c-210.87 0-381.81 170.94-381.81 381.81s170.94 381.81 381.81 381.81S904.89 734 904.89 523.08 734 141.27 523.08 141.27zM488.8 666.94h-76.33c-2.75 0-2.91-.19-2.91-3 0-14.59 0-29.18.09-43.76 0-1.82-.88-1.88-2.22-1.88H244.95c-1.61 0-2.18-.34-2.17-2.07.06-15.59 0-31.18 0-46.76 0-3.26.14-6.52.2-9.79.11-5 2.61-8.93 6-12.35Q262 534.1 275.17 521c7-7 14-13.91 21-20.86q17.4-17.25 34.78-34.52c8-8 15.83-16.13 23.84-24.1 10.61-10.57 21.33-21 32-31.55 5.57-5.49 11.11-11 16.68-16.54 3.89-3.85 7.64-7.89 11.77-11.48a20.6 20.6 0 0 1 13.67-5.52q29.05-.09 58.12-.32c2 0 2.64.57 2.64 2.58q0 42.86.12 85.72c0 1.91-.62 2.41-2.46 2.65a50.81 50.81 0 0 0-15 4.88 59.27 59.27 0 0 0-13.64 8.89A70.94 70.94 0 0 0 446.94 494a58.57 58.57 0 0 0-8.08 17 51.39 51.39 0 0 0-1.51 23.87 58 58 0 0 0 2 8.5c1.72 5 3.56 10 6.9 14.29 2.9 3.67 5.64 7.55 9 10.78a54.37 54.37 0 0 0 23.84 13.89c3.11.84 6.23 1.71 9.4 2.27 1.73.3 2.1 1 2.08 2.62-.07 9.33-.06 18.65 0 28s0 18.91.17 28.37c.13 6.82.52 13.65.81 20.47.04 2.62-.14 2.88-2.75 2.88zM470.5 526c-.65-15.8 13.54-27.45 26.13-27.85 16.17-.53 28.91 13.64 28.74 27.53-.18 14.33-11 26.23-27.68 26.6-14.07.27-27.83-12.15-27.19-26.28zm329.27 28.93c-.86 4.19-2.13 8.32-3.4 12.42s-2.56 7.89-4 11.75a80.38 80.38 0 0 1-3.82 8.34 147.91 147.91 0 0 1-7.77 14.22c-3.9 5.87-8.21 11.49-12.64 17a121 121 0 0 1-22.11 21c-3.2 2.37-6.23 5-9.64 7-6.18 3.64-12.49 7.09-18.93 10.24a126.09 126.09 0 0 1-14.39 5.8 150.14 150.14 0 0 1-16 4.67c-6.78 1.5-13.67 2.52-20.53 3.62a62.43 62.43 0 0 1-6.57.35c-3.19.16-6.39.6-9.56.45-9.08-.44-18.22-.34-27.18-2.28-6.32-1.36-12.76-2.31-19-4.14a152.06 152.06 0 0 1-20.51-7.52 177.36 177.36 0 0 1-20.21-11.13 114.11 114.11 0 0 1-15.7-11.67A183.07 183.07 0 0 1 531.4 618a198.43 198.43 0 0 1-12.3-16.85 82.78 82.78 0 0 1-4.84-8.95c-1.18-2.31-2.25-4.69-3.37-7-.54-1.14-.4-1.79 1-2.08a53.3 53.3 0 0 0 17.1-6.84 58.39 58.39 0 0 0 15.91-13.87c3.28-4.17 6.28-8.52 8-13.62 1-3 2.2-6 3.05-9.08a44.83 44.83 0 0 0 1.36-18.56 67.9 67.9 0 0 0-3.4-13.8 51.77 51.77 0 0 0-12.25-19.59c-3.48-3.38-6.84-6.93-10.62-9.93a44.13 44.13 0 0 0-13-7.21c-2.81-1-5.55-2.17-8.86-3.48a26.24 26.24 0 0 1 1.26-3.75c2.8-5.64 5.39-11.41 8.61-16.79a130.38 130.38 0 0 1 15.44-21c3.58-3.93 7.25-7.79 11.14-11.41a138.19 138.19 0 0 1 23.21-17.36c6.78-4.07 13.65-7.91 21.13-10.55 5.31-1.88 10.57-4 16-5.51 6.27-1.8 12.61-3.67 19-4.52a239.1 239.1 0 0 1 26.21-1.86 152.4 152.4 0 0 1 20.48 1.05 166.12 166.12 0 0 1 20 3.56 146.87 146.87 0 0 1 17.69 5.57c4.85 1.84 9.48 4.3 14.17 6.56a83.66 83.66 0 0 1 8.72 4.53c5.3 3.39 10.72 6.68 15.54 10.68a202.88 202.88 0 0 1 18.56 17.21A114.28 114.28 0 0 1 780 441.64c4.28 6.89 8.35 13.87 11.21 21.48 2 5.34 4 10.7 5.72 16.13 4.11 12.66 5.71 25.71 5.81 39 0 1.3.67 2.61.59 3.89-.4 6.21-.84 12.42-1.49 18.61-.47 4.73-1.12 9.47-2.07 14.14z" class="cls-2"/></svg>