<?xml version="1.0" encoding="UTF-8"?>
<svg xmlns="http://www.w3.org/2000/svg" xmlns:xlink="http://www.w3.org/1999/xlink" width="32px" height="32px" viewBox="0 0 32 32" version="1.1">
<g id="surface1">
<path style=" stroke:none;fill-rule:evenodd;fill:rgb(95.686275%,39.215686%,7.45098%);fill-opacity:1;" d="M 23.09375 3.683594 L 21.589844 3.304688 L 20.832031 6.3125 L 22.335938 6.691406 L 23.023438 6.867188 C 21.1875 7.660156 19.199219 8.175781 15.992188 8.460938 C 15.742188 7.757812 15.421875 7.113281 15.011719 6.53125 C 14.355469 5.605469 13.527344 4.90625 12.542969 4.335938 C 10.46875 3.132812 6.683594 2.972656 4.472656 5.871094 C 3.949219 6.558594 3.640625 7.503906 3.949219 8.511719 C 4.25 9.476562 5.011719 10.164062 5.902344 10.625 C 7.460938 11.429688 9.957031 11.847656 13.570312 11.722656 C 13.804688 13.441406 13.875 15.738281 13.875 18.933594 L 13.875 28.695312 L 16.980469 28.695312 L 16.980469 18.933594 C 16.980469 15.902344 16.917969 13.472656 16.671875 11.515625 C 20.367188 11.152344 22.6875 10.46875 24.988281 9.382812 L 24.78125 10.207031 L 24.402344 11.714844 L 27.410156 12.46875 L 27.789062 10.964844 L 28.855469 6.734375 L 29.234375 5.226562 L 27.730469 4.847656 Z M 7.332031 7.867188 C 7.175781 7.789062 7.074219 7.71875 7.007812 7.664062 C 8.042969 6.417969 9.90625 6.394531 10.988281 7.019531 C 11.660156 7.410156 12.125 7.824219 12.472656 8.320312 C 12.546875 8.421875 12.613281 8.527344 12.679688 8.640625 C 9.769531 8.667969 8.125 8.28125 7.332031 7.867188 Z M 7.332031 7.867188 "/>
</g>
</svg>
