<svg width="32" height="28" viewBox="0 0 32 28" fill="none" xmlns="http://www.w3.org/2000/svg">
<rect width="32" height="28" fill="black"/>
<path d="M20.3763 16.5353H18.9922L18.5533 15.2119L18.5077 15.213L18.0675 16.5391H16.6801L16.668 16.5834L17.7874 17.3997C17.6422 17.8499 17.5018 18.2848 17.3614 18.7198L17.4035 18.7456L18.5291 17.9352C18.7359 18.0835 18.9273 18.2204 19.1185 18.357C19.3047 18.49 19.4908 18.6228 19.6769 18.7559L19.7026 18.7264C19.5593 18.2826 19.4163 17.8399 19.2737 17.3979L20.3919 16.586L20.3764 16.5354L20.3763 16.5353Z" fill="white"/>
<path d="M26.8587 23.4964L27 23.4508L26.9556 23.3169C26.9559 23.2943 26.9528 23.271 26.9453 23.248C26.9374 23.2239 26.9259 23.2022 26.9113 23.1832L26.8664 23.0477H26.866C26.7988 22.8469 26.7273 22.6352 26.6576 22.4288C26.5671 22.1607 26.4735 21.8835 26.391 21.6349L26.3894 21.6303C25.6512 19.5641 24.9722 17.4259 24.3154 15.3582C23.3471 12.3093 22.3458 9.15666 21.1325 6.1611C20.7982 5.33608 19.9804 4.80345 19.0976 4.83643C18.7139 4.85066 18.3502 4.96783 18.0462 5.17519C17.7203 5.3974 17.4702 5.72067 17.3224 6.11042C16.8717 7.13089 16.4284 8.17538 15.9997 9.18563C14.979 11.5908 13.9235 14.0777 12.6905 16.4245C12.6283 16.5194 12.5704 16.619 12.5144 16.7153C12.3566 16.9871 12.2073 17.2437 11.972 17.3921L11.9657 17.3961L11.9596 17.4005C11.8799 17.4591 11.7462 17.4692 11.7156 17.4495C11.7149 17.4479 11.7139 17.4447 11.713 17.4393L11.7112 17.4284L11.7082 17.4178C10.7397 13.9341 9.59433 9.8114 8.44217 5.64807C8.40797 5.49887 8.30493 5.37359 8.16483 5.31058C7.57117 5.01366 6.87945 4.84708 6.16401 4.82885C5.49209 4.81178 4.8099 4.92357 4.19136 5.15232L4 5.22313L4.06396 5.41595C4.71894 7.39009 5.38376 9.40248 6.02655 11.3487C7.19259 14.8788 8.39822 18.5291 9.59645 22.1032C9.69313 22.4862 9.90292 22.8456 10.2036 23.1431C10.4947 23.431 10.8513 23.6431 11.235 23.7564C11.4393 23.8167 11.6426 23.8464 11.8408 23.8464C12.3178 23.8464 12.7646 23.6746 13.1189 23.3447L13.1219 23.3419C13.3872 23.0851 13.616 22.6732 13.7264 22.3761C13.9259 21.9242 14.1318 21.4455 14.3309 20.9825C14.6387 20.2667 14.9572 19.5264 15.2711 18.8398C15.7648 17.7846 16.2286 16.6945 16.677 15.6404C17.246 14.3031 17.8343 12.9203 18.4873 11.6016C18.5907 11.4436 18.789 11.3618 18.9953 11.3926C19.2061 11.4241 19.3643 11.5649 19.4185 11.769C19.56 12.3022 19.7113 12.8417 19.8578 13.3635C19.9234 13.5973 19.9912 13.8391 20.0572 14.0771C20.8823 17.0456 21.7181 20.0586 22.541 23.0321C22.5755 23.1725 22.6742 23.2898 22.8067 23.3486C23.3946 23.6497 24.061 23.8098 24.7876 23.8249C25.4234 23.8381 26.0783 23.7409 26.735 23.5361C26.7577 23.5361 26.7801 23.5328 26.801 23.526C26.8215 23.5193 26.8409 23.5093 26.8588 23.4965L26.8587 23.4964ZM13.336 22.2125L13.331 22.2248C13.2213 22.5229 13.0146 22.857 12.828 23.0383C12.6254 23.2264 12.3894 23.3475 12.1262 23.3982C11.8827 23.4451 11.6161 23.4292 11.3556 23.3523C11.039 23.2589 10.744 23.0831 10.5023 22.8441C10.2545 22.5991 10.0828 22.305 10.0057 21.9938L10.0037 21.9856L10.0011 21.9776C8.80233 18.4019 7.59595 14.7494 6.42917 11.2171C5.80745 9.33557 5.1655 7.39199 4.5316 5.48096C5.04743 5.31574 5.60381 5.23619 6.1531 5.25021C6.80828 5.26686 7.43943 5.41869 7.97855 5.68927L7.98946 5.69433C8.00979 5.70307 8.02462 5.72119 8.02928 5.74279L8.03224 5.75491C9.14321 9.76968 10.2479 13.7463 11.194 17.1494C11.3388 17.8213 11.49 18.3528 11.6697 18.8216C11.8015 19.1656 11.9717 19.5576 12.2343 19.8567C12.5256 20.1885 12.89 20.3565 13.318 20.3565C13.3365 20.3565 13.3552 20.3561 13.3739 20.3555C13.6767 20.3454 13.9793 20.252 14.252 20.0965C14.1477 20.3375 14.044 20.5786 13.9415 20.8169C13.7419 21.281 13.5355 21.7609 13.336 22.2127V22.2125ZM19.0581 10.9758C18.6811 10.9194 18.3138 11.0808 18.1224 11.3868L18.1169 11.3957L18.1123 11.405C17.4519 12.7377 16.8596 14.1298 16.2869 15.4761C15.8397 16.5272 15.3774 17.6141 14.8865 18.6629L14.8858 18.6646C14.8399 18.7648 14.7941 18.8662 14.7482 18.9683C14.6305 19.2282 14.4286 19.4679 14.18 19.6433C13.9236 19.8242 13.6399 19.9248 13.3596 19.9341C13.0318 19.9452 12.7756 19.8324 12.5534 19.5794C12.3346 19.3302 12.184 18.9805 12.0654 18.6713C11.9729 18.4298 11.888 18.1697 11.8074 17.8794C11.9557 17.8717 12.1025 17.8171 12.2045 17.7444C12.5242 17.5406 12.7056 17.2283 12.8811 16.9263C12.9383 16.8277 12.9924 16.7347 13.0503 16.6472L13.0561 16.6384L13.061 16.629C14.2427 14.3809 15.2592 12.0123 16.2377 9.70825C16.4379 9.40048 16.7428 9.12105 17.0561 8.95847C17.5106 8.72266 17.8548 8.7843 18.0637 8.87754C18.3352 8.99872 18.7407 9.28995 19.1262 10.4147C19.1974 10.6223 19.2582 10.8351 19.3124 11.0501C19.2334 11.0146 19.1482 10.9893 19.0581 10.9758V10.9758ZM24.7962 23.4033C24.1322 23.3896 23.5262 23.2441 22.9947 22.9708L22.9873 22.967L22.9797 22.9638C22.9659 22.9581 22.9556 22.9458 22.9521 22.9313L22.9501 22.9233C22.1267 19.9485 21.2907 16.9344 20.4652 13.9646C20.399 13.7263 20.3311 13.4842 20.2655 13.25C20.1929 12.9916 20.1192 12.7287 20.0461 12.4645C20.0146 12.3141 19.9839 12.1602 19.9542 12.0113C19.8401 11.4391 19.722 10.8473 19.5271 10.2786C19.437 10.0161 19.2925 9.62712 19.0774 9.28099C18.8417 8.90178 18.5589 8.63668 18.237 8.49296C17.815 8.30456 17.3389 8.33628 16.8601 8.58473C16.7948 8.61866 16.7302 8.65638 16.6669 8.69737C17.0087 7.89342 17.3585 7.0762 17.7125 6.27468L17.717 6.26383C17.945 5.65776 18.467 5.28161 19.1134 5.25758C19.8185 5.23145 20.472 5.65787 20.7396 6.31873C21.9468 9.29922 22.9456 12.4441 23.9115 15.4853C24.5691 17.5557 25.2491 19.6969 25.9894 21.7694C26.0721 22.0185 26.1656 22.2954 26.2561 22.5631C26.3252 22.768 26.3962 22.9779 26.4628 23.1771C25.9031 23.3365 25.331 23.4145 24.7962 23.4034V23.4033Z" fill="white"/>
</svg>
