<?xml version="1.0" encoding="UTF-8"?>
<svg data-bbox="52.863 52.763 1896.437 1896.437" viewBox="0 0 2000 2000" xmlns="http://www.w3.org/2000/svg" data-type="color">
    <g>
        <path d="M928.2 55.5C464.6 90.3 90.4 464.6 55.6 928.2c-41.7 555.6 398.6 1021 945.5 1021 43.3 0 85.7-3.3 127.5-8.9l-110.1-108.4c-5.8.1-11.5.4-17.4.4-154.6 0-299.4-42.6-423.6-116.4-41-24.4-79.8-52.3-115.9-83.1-197.6-168.9-315.5-428.5-288-713.8 38.5-399 363.9-717 763.6-747 487.1-36.5 895.1 349.5 895.1 829 0 255.2-115.7 483.9-297.3 636.5 0 0-62.2 51-97.9 72.5-10 7.2-20.6 13.4-32 18.4-16.1 8.8-48.8 25.9-69.4 25.9h-1.5c-58.7-.2-112-34.4-136.5-87.8-52.3-114.3-103.9-233.1-149-347.9 238.2-70.3 418.8-262.2 418.8-505.1 0-223.8-175.8-378.9-422-378.9-163.1 0-305.3 57.5-407.6 119.9l54.4 99.1c89.5-60.7 219-110.3 351.7-110.3 164.6 0 302.1 105.5 302.1 276.6 0 254.2-236.6 434.8-530.7 415.6 54.4-159.8 110.3-319.7 166.2-476.4H863.5c-97.7 270.8-190.5 546-286.6 826.3h127.3c33-105.3 52.9-170.6 76.2-239.6 52.8 4.8 105.5 3.2 158.3-3.2 43.2 118.3 143.2 358.1 143.2 358.1 19.8 44.2 50.9 82.2 89.4 110.6 35.3 25.6 101.9 50.2 162.6 50.2h.8c41.3-.1 81.8-12 118.5-30.9 30.4-15.7 59.6-32.1 82.3-46.7 249.7-171 413.8-458 413.8-782.8 0-547-465.5-987.3-1021.1-945.6z" fill="#3a4f13" data-color="1"/>
    </g>
</svg>
